<svg width="34" height="34" viewBox="0 0 34 34" fill="none" xmlns="http://www.w3.org/2000/svg">
<rect width="34" height="34" rx="9" fill="url(#paint0_linear_3034_42)"/>
<rect x="0.5" y="0.5" width="33" height="33" rx="8.5" stroke="black" stroke-opacity="0.35"/>
<g filter="url(#filter0_i_3034_42)">
<path d="M17.5 5C23.8513 5 29 10.1487 29 16.5C29 22.8513 23.8513 28 17.5 28C11.1487 28 6 22.8513 6 16.5C6 10.1487 11.1487 5 17.5 5Z" fill="url(#paint1_linear_3034_42)"/>
</g>
<path d="M17.5 4.625C24.0584 4.625 29.375 9.94162 29.375 16.5C29.375 23.0584 24.0584 28.375 17.5 28.375C10.9416 28.375 5.625 23.0584 5.625 16.5C5.625 9.94162 10.9416 4.625 17.5 4.625Z" stroke="#747685" stroke-width="0.75"/>
<g filter="url(#filter1_i_3034_42)">
<path d="M17.5 5.375C23.6442 5.375 28.625 10.3558 28.625 16.5C28.625 22.6442 23.6442 27.625 17.5 27.625C11.3558 27.625 6.375 22.6442 6.375 16.5C6.375 10.3558 11.3558 5.375 17.5 5.375Z" stroke="#FFFCF9" stroke-opacity="0.02" stroke-width="0.75"/>
</g>
<path d="M17.2978 14.8589C17.8353 14.8589 18.2711 15.294 18.2711 15.8306V22.3088C18.2711 22.8454 17.8353 23.2805 17.2978 23.2805C16.7602 23.2805 16.3245 22.8454 16.3245 22.3088V15.8306C16.3245 15.294 16.7602 14.8589 17.2978 14.8589Z" fill="url(#paint2_linear_3034_42)"/>
<path d="M17.2977 12.5913C18.0145 12.5913 18.5955 12.0112 18.5955 11.2956C18.5955 10.5801 18.0145 10 17.2977 10C16.581 10 16 10.5801 16 11.2956C16 12.0112 16.581 12.5913 17.2977 12.5913Z" fill="url(#paint3_linear_3034_42)"/>
<defs>
<filter id="filter0_i_3034_42" x="5.25" y="4.25" width="24.5" height="24.5" filterUnits="userSpaceOnUse" color-interpolation-filters="sRGB">
<feFlood flood-opacity="0" result="BackgroundImageFix"/>
<feBlend mode="normal" in="SourceGraphic" in2="BackgroundImageFix" result="shape"/>
<feColorMatrix in="SourceAlpha" type="matrix" values="0 0 0 0 0 0 0 0 0 0 0 0 0 0 0 0 0 0 127 0" result="hardAlpha"/>
<feOffset/>
<feGaussianBlur stdDeviation="3"/>
<feComposite in2="hardAlpha" operator="arithmetic" k2="-1" k3="1"/>
<feColorMatrix type="matrix" values="0 0 0 0 1 0 0 0 0 1 0 0 0 0 1 0 0 0 0.5 0"/>
<feBlend mode="normal" in2="shape" result="effect1_innerShadow_3034_42"/>
</filter>
<filter id="filter1_i_3034_42" x="6" y="5" width="23" height="23" filterUnits="userSpaceOnUse" color-interpolation-filters="sRGB">
<feFlood flood-opacity="0" result="BackgroundImageFix"/>
<feBlend mode="normal" in="SourceGraphic" in2="BackgroundImageFix" result="shape"/>
<feColorMatrix in="SourceAlpha" type="matrix" values="0 0 0 0 0 0 0 0 0 0 0 0 0 0 0 0 0 0 127 0" result="hardAlpha"/>
<feOffset/>
<feGaussianBlur stdDeviation="3"/>
<feComposite in2="hardAlpha" operator="arithmetic" k2="-1" k3="1"/>
<feColorMatrix type="matrix" values="0 0 0 0 1 0 0 0 0 1 0 0 0 0 1 0 0 0 0.5 0"/>
<feBlend mode="normal" in2="shape" result="effect1_innerShadow_3034_42"/>
</filter>
<linearGradient id="paint0_linear_3034_42" x1="22.5" y1="2.5" x2="17" y2="35.5" gradientUnits="userSpaceOnUse">
<stop stop-color="#D5D9E5"/>
<stop offset="1" stop-color="#8D93AB"/>
</linearGradient>
<linearGradient id="paint1_linear_3034_42" x1="31.6136" y1="1.51515" x2="31.6136" y2="32.1818" gradientUnits="userSpaceOnUse">
<stop stop-color="#FCFFFF"/>
<stop offset="1" stop-color="#D7D5DF"/>
</linearGradient>
<linearGradient id="paint2_linear_3034_42" x1="17.2978" y1="14.8589" x2="17.2978" y2="23.2805" gradientUnits="userSpaceOnUse">
<stop stop-color="#4B4D55"/>
<stop offset="1" stop-color="#202125"/>
</linearGradient>
<linearGradient id="paint3_linear_3034_42" x1="17.2977" y1="10" x2="17.2977" y2="12.5913" gradientUnits="userSpaceOnUse">
<stop stop-color="#6B7076"/>
<stop offset="1" stop-color="#4B4D55"/>
</linearGradient>
</defs>
</svg>
