<svg width="34" height="34" viewBox="0 0 34 34" fill="none" xmlns="http://www.w3.org/2000/svg">
<rect width="34" height="34" rx="9" fill="url(#paint0_linear_3047_139)"/>
<rect x="0.5" y="0.5" width="33" height="33" rx="8.5" stroke="black" stroke-opacity="0.2"/>
<g filter="url(#filter0_i_3047_139)">
<path d="M5 24V9C5 6.79086 6.79086 5 9 5H24C26.2091 5 28 6.79086 28 9V24C28 26.2091 26.2091 28 24 28H9C6.79086 28 5 26.2091 5 24Z" fill="url(#paint1_linear_3047_139)"/>
</g>
<path d="M24 4.625C26.4162 4.625 28.375 6.58375 28.375 9V24C28.375 26.4162 26.4162 28.375 24 28.375H9C6.58375 28.375 4.625 26.4162 4.625 24V9C4.625 6.58375 6.58375 4.625 9 4.625H24Z" stroke="#5B71A2" stroke-width="0.75"/>
<g filter="url(#filter1_i_3047_139)">
<path d="M9 5.375H24C26.002 5.375 27.625 6.99797 27.625 9V24C27.625 26.002 26.002 27.625 24 27.625H9C6.99797 27.625 5.375 26.002 5.375 24V9C5.375 6.99797 6.99797 5.375 9 5.375Z" stroke="#FFFCF9" stroke-opacity="0.02" stroke-width="0.75"/>
</g>
<rect x="8" y="21" width="16" height="2" rx="1" fill="url(#paint2_linear_3047_139)"/>
<rect x="8" y="16" width="9" height="2" rx="1" fill="url(#paint3_linear_3047_139)"/>
<rect x="8" y="11" width="13" height="2" rx="1" fill="url(#paint4_linear_3047_139)"/>
<defs>
<filter id="filter0_i_3047_139" x="4.25" y="4.25" width="24.5" height="24.5" filterUnits="userSpaceOnUse" color-interpolation-filters="sRGB">
<feFlood flood-opacity="0" result="BackgroundImageFix"/>
<feBlend mode="normal" in="SourceGraphic" in2="BackgroundImageFix" result="shape"/>
<feColorMatrix in="SourceAlpha" type="matrix" values="0 0 0 0 0 0 0 0 0 0 0 0 0 0 0 0 0 0 127 0" result="hardAlpha"/>
<feOffset/>
<feGaussianBlur stdDeviation="3"/>
<feComposite in2="hardAlpha" operator="arithmetic" k2="-1" k3="1"/>
<feColorMatrix type="matrix" values="0 0 0 0 1 0 0 0 0 1 0 0 0 0 1 0 0 0 0.5 0"/>
<feBlend mode="normal" in2="shape" result="effect1_innerShadow_3047_139"/>
</filter>
<filter id="filter1_i_3047_139" x="5" y="5" width="23" height="23" filterUnits="userSpaceOnUse" color-interpolation-filters="sRGB">
<feFlood flood-opacity="0" result="BackgroundImageFix"/>
<feBlend mode="normal" in="SourceGraphic" in2="BackgroundImageFix" result="shape"/>
<feColorMatrix in="SourceAlpha" type="matrix" values="0 0 0 0 0 0 0 0 0 0 0 0 0 0 0 0 0 0 127 0" result="hardAlpha"/>
<feOffset/>
<feGaussianBlur stdDeviation="3"/>
<feComposite in2="hardAlpha" operator="arithmetic" k2="-1" k3="1"/>
<feColorMatrix type="matrix" values="0 0 0 0 1 0 0 0 0 1 0 0 0 0 1 0 0 0 0.5 0"/>
<feBlend mode="normal" in2="shape" result="effect1_innerShadow_3047_139"/>
</filter>
<linearGradient id="paint0_linear_3047_139" x1="17.5" y1="0.5" x2="17.5" y2="31" gradientUnits="userSpaceOnUse">
<stop stop-color="#A6CAFC"/>
<stop offset="1" stop-color="#5293E7"/>
</linearGradient>
<linearGradient id="paint1_linear_3047_139" x1="30.6136" y1="1.51515" x2="30.6136" y2="32.1818" gradientUnits="userSpaceOnUse">
<stop stop-color="#F5FEF9"/>
<stop offset="1" stop-color="#D2E0FF"/>
</linearGradient>
<linearGradient id="paint2_linear_3047_139" x1="16" y1="21" x2="16" y2="23" gradientUnits="userSpaceOnUse">
<stop stop-color="#647C9E"/>
<stop offset="1" stop-color="#5D7BA1"/>
</linearGradient>
<linearGradient id="paint3_linear_3047_139" x1="12.5" y1="16" x2="12.5" y2="18" gradientUnits="userSpaceOnUse">
<stop stop-color="#8192AC"/>
<stop offset="1" stop-color="#7991B5"/>
</linearGradient>
<linearGradient id="paint4_linear_3047_139" x1="14.5" y1="11" x2="14.5" y2="13" gradientUnits="userSpaceOnUse">
<stop stop-color="#92A6C3"/>
<stop offset="1" stop-color="#8192AC"/>
</linearGradient>
</defs>
</svg>
