<svg width="140" height="34" viewBox="0 0 140 34" fill="none" xmlns="http://www.w3.org/2000/svg">
<rect width="34" height="34" rx="9" fill="url(#paint0_linear_3054_151)"/>
<rect x="0.5" y="0.5" width="33" height="33" rx="8.5" stroke="black" stroke-opacity="0.35"/>
<g filter="url(#filter0_i_3054_151)">
<path d="M5.45001 24V9C5.45001 6.79086 7.24087 5 9.45001 5H24.45C26.6592 5 28.45 6.79086 28.45 9V24C28.45 26.2091 26.6592 28 24.45 28H9.45001C7.24087 28 5.45001 26.2091 5.45001 24Z" fill="url(#paint1_linear_3054_151)"/>
</g>
<path d="M24.45 4.625C26.8663 4.625 28.825 6.58375 28.825 9V24C28.825 26.4162 26.8663 28.375 24.45 28.375H9.45001C7.03377 28.375 5.07501 26.4162 5.07501 24V9C5.07501 6.58375 7.03377 4.625 9.45001 4.625H24.45Z" stroke="#5C6D21" stroke-width="0.75"/>
<g filter="url(#filter1_i_3054_151)">
<path d="M5.45001 10V9C5.45001 6.79086 7.24087 5 9.45001 5H24.45C26.6592 5 28.45 6.79086 28.45 9V10C28.45 10.5523 28.0023 11 27.45 11H6.45001C5.89773 11 5.45001 10.5523 5.45001 10Z" fill="#36B300"/>
</g>
<path d="M5.44922 21H28.45V23H5.44924L5.44922 21Z" fill="#E0F2CD"/>
<path d="M5.44922 15H28.45V17H5.44924L5.44922 15Z" fill="#E0F2CD"/>
<rect x="11" y="28" width="17" height="2" transform="rotate(-90 11 28)" fill="#E0F2CD"/>
<rect x="21" y="28" width="17" height="2" transform="rotate(-90 21 28)" fill="#E0F2CD"/>
<g filter="url(#filter2_i_3054_151)">
<path d="M9.45001 5.375H24.45C26.452 5.375 28.075 6.99797 28.075 9V24C28.075 26.002 26.452 27.625 24.45 27.625H9.45001C7.44798 27.625 5.82501 26.002 5.82501 24V9C5.82501 6.99797 7.44798 5.375 9.45001 5.375Z" stroke="#FFFCF9" stroke-opacity="0.02" stroke-width="0.75"/>
</g>
<path d="M40.0618 14.2003V11.8182H52.0277V14.2003H47.402V26H44.706V14.2003H40.0618ZM56.5946 26.3139C55.6959 26.3139 54.8834 26.1477 54.1571 25.8153C53.4308 25.4768 52.8552 24.9875 52.4305 24.3473C52.012 23.7071 51.8027 22.9223 51.8027 21.9929C51.8027 21.1927 51.9566 20.5341 52.2643 20.017C52.5721 19.5 52.9876 19.0907 53.5108 18.7891C54.034 18.4875 54.6187 18.2597 55.2651 18.1058C55.9114 17.9519 56.57 17.835 57.2409 17.755C58.0903 17.6565 58.7797 17.5765 59.3091 17.5149C59.8384 17.4472 60.2231 17.3395 60.4632 17.1918C60.7033 17.044 60.8233 16.804 60.8233 16.4716V16.407C60.8233 15.6006 60.5955 14.9759 60.1401 14.5327C59.6907 14.0895 59.0198 13.8679 58.1273 13.8679C57.1978 13.8679 56.4653 14.0741 55.9298 14.4865C55.4005 14.8928 55.0342 15.3452 54.8311 15.8438L52.2366 15.2528C52.5444 14.3911 52.9937 13.6955 53.5847 13.1662C54.1817 12.6307 54.868 12.2429 55.6436 12.0028C56.4192 11.7566 57.2347 11.6335 58.0903 11.6335C58.6566 11.6335 59.2568 11.7012 59.8908 11.8366C60.5309 11.9659 61.128 12.206 61.682 12.5568C62.2421 12.9077 62.7007 13.4093 63.0577 14.0618C63.4147 14.7081 63.5932 15.5483 63.5932 16.5824V26H60.8972V24.0611H60.7864C60.6079 24.4181 60.3401 24.7689 59.9831 25.1136C59.6261 25.4583 59.1675 25.7446 58.6074 25.9723C58.0472 26.2 57.3763 26.3139 56.5946 26.3139ZM57.1947 24.098C57.958 24.098 58.6105 23.9472 59.1521 23.6456C59.6999 23.344 60.1154 22.95 60.3986 22.4638C60.6879 21.9714 60.8325 21.4451 60.8325 20.8849V19.0568C60.734 19.1553 60.5432 19.2476 60.2601 19.3338C59.9831 19.4138 59.6661 19.4846 59.3091 19.5462C58.9521 19.6016 58.6043 19.6539 58.2658 19.7031C57.9272 19.7462 57.6441 19.7831 57.4163 19.8139C56.8808 19.8816 56.3915 19.9955 55.9483 20.1555C55.5113 20.3156 55.1604 20.5464 54.8957 20.848C54.6372 21.1435 54.5079 21.5374 54.5079 22.0298C54.5079 22.7131 54.7603 23.2301 55.2651 23.581C55.7698 23.9257 56.413 24.098 57.1947 24.098ZM76.3913 6.53693L77.5361 8.28196C77.1114 8.66974 76.6282 8.94673 76.0866 9.11293C75.5511 9.27296 74.9324 9.37453 74.2307 9.41761C73.529 9.45454 72.7258 9.4884 71.8209 9.51918C70.7992 9.54995 69.959 9.77154 69.3003 10.1839C68.6417 10.5902 68.1339 11.1934 67.7769 11.9936C67.4261 12.7876 67.1983 13.7848 67.0937 14.9851H67.2691C67.7307 14.1049 68.3709 13.4463 69.1895 13.0092C70.0144 12.5722 70.9407 12.3537 71.9687 12.3537C73.1136 12.3537 74.1323 12.6153 75.0248 13.1385C75.9173 13.6617 76.619 14.428 77.1299 15.4375C77.6469 16.4408 77.9055 17.6688 77.9055 19.1214C77.9055 20.5926 77.6346 21.8636 77.093 22.9347C76.5574 24.0057 75.8003 24.8336 74.8216 25.4183C73.8491 25.9969 72.7011 26.2862 71.3778 26.2862C70.0544 26.2862 68.9002 25.9877 67.9154 25.3906C66.9367 24.7874 66.1765 23.8949 65.6349 22.7131C65.0993 21.5312 64.8316 20.0724 64.8316 18.3366V16.9332C64.8316 13.6894 65.4102 11.2488 66.5674 9.6115C67.7246 7.97419 69.4542 7.134 71.7563 7.09091C72.5011 7.07244 73.1659 7.06937 73.7506 7.08168C74.3354 7.08783 74.8463 7.06013 75.2833 6.99858C75.7265 6.93087 76.0958 6.77699 76.3913 6.53693ZM71.387 23.9688C72.1564 23.9688 72.8181 23.7749 73.3721 23.3871C73.9322 22.9931 74.3631 22.4361 74.6647 21.7159C74.9663 20.9957 75.1171 20.1463 75.1171 19.1676C75.1171 18.2074 74.9663 17.3918 74.6647 16.7209C74.3631 16.05 73.9322 15.5391 73.3721 15.1882C72.8119 14.8312 72.141 14.6527 71.3593 14.6527C70.7807 14.6527 70.2636 14.7543 69.8082 14.9574C69.3527 15.1544 68.9618 15.4467 68.6356 15.8345C68.3155 16.2223 68.0662 16.6963 67.8877 17.2564C67.7154 17.8104 67.623 18.4474 67.6107 19.1676C67.6107 20.6326 67.9462 21.799 68.6171 22.6669C69.2942 23.5348 70.2175 23.9688 71.387 23.9688ZM78.0521 26L78.0428 23.6087H78.5507C78.9446 23.6087 79.2739 23.5256 79.5386 23.3594C79.8094 23.187 80.031 22.8977 80.2034 22.4915C80.3757 22.0852 80.508 21.5251 80.6004 20.8111C80.6927 20.0909 80.7604 19.1861 80.8035 18.0966L81.0528 11.8182H90.9505V26H88.2453V14.2003H83.6103L83.3887 19.0199C83.3333 20.1894 83.2133 21.2112 83.0286 22.0852C82.8501 22.9593 82.5885 23.6887 82.2438 24.2734C81.8991 24.852 81.456 25.286 80.9143 25.5753C80.3726 25.8584 79.714 26 78.9384 26H78.0521ZM95.5174 22.1314L101.768 11.8182H104.741V26H102.036V15.6776L95.8129 26H92.8122V11.8182H95.5174V22.1314ZM118.202 11.8182V23.7379H120.279V30.5703H117.555V26H106.633V11.8182H109.338V23.6179H115.506V11.8182H118.202ZM123.597 16.6932H127.715C129.451 16.6932 130.787 17.1241 131.722 17.9858C132.658 18.8475 133.126 19.9586 133.126 21.3189C133.126 22.2053 132.916 23.0024 132.498 23.7102C132.079 24.4181 131.467 24.9782 130.66 25.3906C129.854 25.7969 128.872 26 127.715 26H121.52V11.8182H124.225V23.6179H127.715C128.509 23.6179 129.162 23.4117 129.673 22.9993C130.183 22.5807 130.439 22.0483 130.439 21.402C130.439 20.7187 130.183 20.1617 129.673 19.7308C129.162 19.2938 128.509 19.0753 127.715 19.0753H123.597V16.6932ZM135.138 26V11.8182H137.899V26H135.138Z" fill="black"/>
<defs>
<filter id="filter0_i_3054_151" x="4.70001" y="4.25" width="24.5" height="24.5" filterUnits="userSpaceOnUse" color-interpolation-filters="sRGB">
<feFlood flood-opacity="0" result="BackgroundImageFix"/>
<feBlend mode="normal" in="SourceGraphic" in2="BackgroundImageFix" result="shape"/>
<feColorMatrix in="SourceAlpha" type="matrix" values="0 0 0 0 0 0 0 0 0 0 0 0 0 0 0 0 0 0 127 0" result="hardAlpha"/>
<feOffset/>
<feGaussianBlur stdDeviation="3"/>
<feComposite in2="hardAlpha" operator="arithmetic" k2="-1" k3="1"/>
<feColorMatrix type="matrix" values="0 0 0 0 1 0 0 0 0 1 0 0 0 0 1 0 0 0 0.5 0"/>
<feBlend mode="normal" in2="shape" result="effect1_innerShadow_3054_151"/>
</filter>
<filter id="filter1_i_3054_151" x="5.45001" y="5" width="23" height="6" filterUnits="userSpaceOnUse" color-interpolation-filters="sRGB">
<feFlood flood-opacity="0" result="BackgroundImageFix"/>
<feBlend mode="normal" in="SourceGraphic" in2="BackgroundImageFix" result="shape"/>
<feColorMatrix in="SourceAlpha" type="matrix" values="0 0 0 0 0 0 0 0 0 0 0 0 0 0 0 0 0 0 127 0" result="hardAlpha"/>
<feOffset/>
<feGaussianBlur stdDeviation="3"/>
<feComposite in2="hardAlpha" operator="arithmetic" k2="-1" k3="1"/>
<feColorMatrix type="matrix" values="0 0 0 0 1 0 0 0 0 1 0 0 0 0 1 0 0 0 0.5 0"/>
<feBlend mode="normal" in2="shape" result="effect1_innerShadow_3054_151"/>
</filter>
<filter id="filter2_i_3054_151" x="5.45001" y="5" width="23" height="23" filterUnits="userSpaceOnUse" color-interpolation-filters="sRGB">
<feFlood flood-opacity="0" result="BackgroundImageFix"/>
<feBlend mode="normal" in="SourceGraphic" in2="BackgroundImageFix" result="shape"/>
<feColorMatrix in="SourceAlpha" type="matrix" values="0 0 0 0 0 0 0 0 0 0 0 0 0 0 0 0 0 0 127 0" result="hardAlpha"/>
<feOffset/>
<feGaussianBlur stdDeviation="3"/>
<feComposite in2="hardAlpha" operator="arithmetic" k2="-1" k3="1"/>
<feColorMatrix type="matrix" values="0 0 0 0 1 0 0 0 0 1 0 0 0 0 1 0 0 0 0.5 0"/>
<feBlend mode="normal" in2="shape" result="effect1_innerShadow_3054_151"/>
</filter>
<linearGradient id="paint0_linear_3054_151" x1="25" y1="4" x2="17.5" y2="31" gradientUnits="userSpaceOnUse">
<stop stop-color="#CBEE52"/>
<stop offset="1" stop-color="#9BC82B"/>
</linearGradient>
<linearGradient id="paint1_linear_3054_151" x1="31.0637" y1="1.51515" x2="31.0637" y2="32.1818" gradientUnits="userSpaceOnUse">
<stop stop-color="#F9FEF5"/>
<stop offset="1" stop-color="#DEFAC0"/>
</linearGradient>
</defs>
</svg>
