<svg width="34" height="34" viewBox="0 0 34 34" fill="none" xmlns="http://www.w3.org/2000/svg">
<rect width="34" height="34" rx="9" fill="url(#paint0_linear_3032_36)"/>
<rect x="0.5" y="0.5" width="33" height="33" rx="8.5" stroke="black" stroke-opacity="0.25"/>
<g filter="url(#filter0_i_3032_36)">
<path d="M5 24V9C5 6.79086 6.79086 5 9 5H24C26.2091 5 28 6.79086 28 9V24C28 26.2091 26.2091 28 24 28H9C6.79086 28 5 26.2091 5 24Z" fill="url(#paint1_linear_3032_36)"/>
</g>
<path d="M24 4.625C26.4162 4.625 28.375 6.58375 28.375 9V24C28.375 26.4162 26.4162 28.375 24 28.375H9C6.58375 28.375 4.625 26.4162 4.625 24V9C4.625 6.58375 6.58375 4.625 9 4.625H24Z" stroke="#393184" stroke-width="0.75"/>
<g filter="url(#filter1_i_3032_36)">
<path d="M9 5.375H24C26.002 5.375 27.625 6.99797 27.625 9V24C27.625 26.002 26.002 27.625 24 27.625H9C6.99797 27.625 5.375 26.002 5.375 24V9C5.375 6.99797 6.99797 5.375 9 5.375Z" stroke="#FFFCF9" stroke-opacity="0.06" stroke-width="0.75"/>
</g>
<circle cx="10" cy="10" r="1.5" fill="url(#paint2_linear_3032_36)"/>
<circle cx="14.5" cy="10" r="1.5" fill="url(#paint3_linear_3032_36)"/>
<circle cx="19" cy="10" r="1.5" fill="url(#paint4_linear_3032_36)"/>
<rect x="8" y="15" width="17" height="2" rx="1" fill="url(#paint5_linear_3032_36)"/>
<rect x="8" y="19" width="13" height="2" rx="1" fill="url(#paint6_linear_3032_36)"/>
<rect x="8" y="23" width="15" height="2" rx="1" fill="url(#paint7_linear_3032_36)"/>
<defs>
<filter id="filter0_i_3032_36" x="4.25" y="4.25" width="24.5" height="24.5" filterUnits="userSpaceOnUse" color-interpolation-filters="sRGB">
<feFlood flood-opacity="0" result="BackgroundImageFix"/>
<feBlend mode="normal" in="SourceGraphic" in2="BackgroundImageFix" result="shape"/>
<feColorMatrix in="SourceAlpha" type="matrix" values="0 0 0 0 0 0 0 0 0 0 0 0 0 0 0 0 0 0 127 0" result="hardAlpha"/>
<feOffset/>
<feGaussianBlur stdDeviation="3"/>
<feComposite in2="hardAlpha" operator="arithmetic" k2="-1" k3="1"/>
<feColorMatrix type="matrix" values="0 0 0 0 1 0 0 0 0 1 0 0 0 0 1 0 0 0 0.5 0"/>
<feBlend mode="normal" in2="shape" result="effect1_innerShadow_3032_36"/>
</filter>
<filter id="filter1_i_3032_36" x="5" y="5" width="23" height="23" filterUnits="userSpaceOnUse" color-interpolation-filters="sRGB">
<feFlood flood-opacity="0" result="BackgroundImageFix"/>
<feBlend mode="normal" in="SourceGraphic" in2="BackgroundImageFix" result="shape"/>
<feColorMatrix in="SourceAlpha" type="matrix" values="0 0 0 0 0 0 0 0 0 0 0 0 0 0 0 0 0 0 127 0" result="hardAlpha"/>
<feOffset/>
<feGaussianBlur stdDeviation="3"/>
<feComposite in2="hardAlpha" operator="arithmetic" k2="-1" k3="1"/>
<feColorMatrix type="matrix" values="0 0 0 0 1 0 0 0 0 1 0 0 0 0 1 0 0 0 0.5 0"/>
<feBlend mode="normal" in2="shape" result="effect1_innerShadow_3032_36"/>
</filter>
<linearGradient id="paint0_linear_3032_36" x1="19.5" y1="2.5" x2="17" y2="35.5" gradientUnits="userSpaceOnUse">
<stop stop-color="#D989FF"/>
<stop offset="0.495192" stop-color="#3697FF"/>
<stop offset="1" stop-color="#0849DB"/>
</linearGradient>
<linearGradient id="paint1_linear_3032_36" x1="30.6136" y1="1.51515" x2="30.6136" y2="32.1818" gradientUnits="userSpaceOnUse">
<stop stop-color="#FEFFFF"/>
<stop offset="1" stop-color="#CADBF0"/>
</linearGradient>
<linearGradient id="paint2_linear_3032_36" x1="10" y1="8.5" x2="10" y2="11.5" gradientUnits="userSpaceOnUse">
<stop stop-color="#FF4A4E"/>
<stop offset="1" stop-color="#FF7073"/>
</linearGradient>
<linearGradient id="paint3_linear_3032_36" x1="14.5" y1="8.5" x2="14.5" y2="11.5" gradientUnits="userSpaceOnUse">
<stop stop-color="#EC9F1D"/>
<stop offset="1" stop-color="#F9AF33"/>
</linearGradient>
<linearGradient id="paint4_linear_3032_36" x1="19" y1="8.5" x2="19" y2="11.5" gradientUnits="userSpaceOnUse">
<stop stop-color="#209F37"/>
<stop offset="1" stop-color="#2EB145"/>
</linearGradient>
<linearGradient id="paint5_linear_3032_36" x1="9.30769" y1="15.3333" x2="13.4736" y2="19.4191" gradientUnits="userSpaceOnUse">
<stop stop-color="#AEA9D6"/>
<stop offset="1" stop-color="#BCB8DF"/>
</linearGradient>
<linearGradient id="paint6_linear_3032_36" x1="9" y1="19.3333" x2="13" y2="22.3333" gradientUnits="userSpaceOnUse">
<stop stop-color="#AEA9D6"/>
<stop offset="1" stop-color="#BCB8DF"/>
</linearGradient>
<linearGradient id="paint7_linear_3032_36" x1="9.15385" y1="23.3333" x2="13.2773" y2="26.9017" gradientUnits="userSpaceOnUse">
<stop stop-color="#AEA9D6"/>
<stop offset="1" stop-color="#BCB8DF"/>
</linearGradient>
</defs>
</svg>
