<svg width="115" height="34" viewBox="0 0 115 34" fill="none" xmlns="http://www.w3.org/2000/svg">
<rect width="34" height="34" rx="9" fill="url(#paint0_linear_3042_105)"/>
<rect x="0.5" y="0.5" width="33" height="33" rx="8.5" stroke="black" stroke-opacity="0.25"/>
<g filter="url(#filter0_i_3042_105)">
<path d="M5 24V9C5 6.79086 6.79086 5 9 5H24C26.2091 5 28 6.79086 28 9V24C28 26.2091 26.2091 28 24 28H9C6.79086 28 5 26.2091 5 24Z" fill="url(#paint1_linear_3042_105)"/>
</g>
<path d="M24 4.625C26.4162 4.625 28.375 6.58375 28.375 9V24C28.375 26.4162 26.4162 28.375 24 28.375H9C6.58375 28.375 4.625 26.4162 4.625 24V9C4.625 6.58375 6.58375 4.625 9 4.625H24Z" stroke="#393184" stroke-width="0.75"/>
<g filter="url(#filter1_i_3042_105)">
<path d="M9 5.375H24C26.002 5.375 27.625 6.99797 27.625 9V24C27.625 26.002 26.002 27.625 24 27.625H9C6.99797 27.625 5.375 26.002 5.375 24V9C5.375 6.99797 6.99797 5.375 9 5.375Z" stroke="#FFFCF9" stroke-opacity="0.06" stroke-width="0.75"/>
</g>
<circle cx="10" cy="10" r="1.5" fill="url(#paint2_linear_3042_105)"/>
<circle cx="14.5" cy="10" r="1.5" fill="url(#paint3_linear_3042_105)"/>
<circle cx="19" cy="10" r="1.5" fill="url(#paint4_linear_3042_105)"/>
<rect x="8" y="15" width="17" height="2" rx="1" fill="url(#paint5_linear_3042_105)"/>
<rect x="8" y="19" width="13" height="2" rx="1" fill="url(#paint6_linear_3042_105)"/>
<rect x="8" y="23" width="15" height="2" rx="1" fill="url(#paint7_linear_3042_105)"/>
<path d="M39.7386 26L39.7294 23.6087H40.2372C40.6312 23.6087 40.9605 23.5256 41.2251 23.3594C41.496 23.187 41.7176 22.8977 41.8899 22.4915C42.0623 22.0852 42.1946 21.5251 42.2869 20.8111C42.3793 20.0909 42.447 19.1861 42.4901 18.0966L42.7393 11.8182H52.6371V26H49.9318V14.2003H45.2969L45.0753 19.0199C45.0199 20.1894 44.8999 21.2112 44.7152 22.0852C44.5367 22.9593 44.2751 23.6887 43.9304 24.2734C43.5857 24.852 43.1425 25.286 42.6009 25.5753C42.0592 25.8584 41.4006 26 40.625 26H39.7386ZM60.6109 26.2862C59.2137 26.2862 58.0103 25.9877 57.0008 25.3906C55.9975 24.7874 55.222 23.9411 54.6741 22.8516C54.1325 21.7559 53.8616 20.4725 53.8616 19.0014C53.8616 17.5488 54.1325 16.2685 54.6741 15.1605C55.222 14.0526 55.9852 13.1877 56.9639 12.5661C57.9488 11.9444 59.0998 11.6335 60.417 11.6335C61.2172 11.6335 61.9928 11.7659 62.7437 12.0305C63.4947 12.2952 64.1687 12.7107 64.7658 13.277C65.3628 13.8433 65.8337 14.5788 66.1784 15.4837C66.5231 16.3823 66.6954 17.4749 66.6954 18.7614V19.7401H55.422V17.6719H63.9902C63.9902 16.9455 63.8425 16.3023 63.547 15.7422C63.2516 15.1759 62.8361 14.7296 62.3006 14.4034C61.7712 14.0772 61.1495 13.9141 60.4355 13.9141C59.6599 13.9141 58.9829 14.1049 58.4043 14.4865C57.8318 14.862 57.3886 15.3544 57.0747 15.9638C56.7669 16.567 56.6131 17.2225 56.6131 17.9304V19.5462C56.6131 20.4941 56.7793 21.3004 57.1116 21.9652C57.4502 22.63 57.9211 23.1378 58.5243 23.4886C59.1275 23.8333 59.8323 24.0057 60.6386 24.0057C61.1618 24.0057 61.6389 23.9318 62.0697 23.7841C62.5006 23.6302 62.873 23.4025 63.1869 23.1009C63.5008 22.7992 63.7409 22.4268 63.9071 21.9837L66.52 22.4545C66.3107 23.224 65.9353 23.898 65.3936 24.4766C64.8581 25.049 64.1841 25.4953 63.3716 25.8153C62.5652 26.1293 61.645 26.2862 60.6109 26.2862ZM77.55 17.718V20.1094H69.8682V17.718H77.55ZM70.6437 11.8182V26H67.9385V11.8182H70.6437ZM79.4797 11.8182V26H76.7837V11.8182H79.4797ZM79.9679 30.0902V23.6087H81.122C81.4175 23.3378 81.6668 23.0147 81.8699 22.6392C82.0792 22.2637 82.2546 21.8175 82.3962 21.3004C82.5439 20.7834 82.667 20.1802 82.7655 19.4908C82.864 18.7952 82.9502 18.0012 83.024 17.1087L83.4672 11.8182H93.1064V23.6087H95.2854V30.0902H92.5894V26H82.7009V30.0902H79.9679ZM84.0766 23.6087H90.4104V14.1818H85.9416L85.6462 17.1087C85.5046 18.5982 85.3261 19.8909 85.1107 20.9865C84.8952 22.076 84.5505 22.95 84.0766 23.6087ZM98.2411 16.6932H102.359C104.095 16.6932 105.431 17.1241 106.366 17.9858C107.302 18.8475 107.77 19.9586 107.77 21.3189C107.77 22.2053 107.56 23.0024 107.142 23.7102C106.723 24.4181 106.111 24.9782 105.304 25.3906C104.498 25.7969 103.516 26 102.359 26H96.1637V11.8182H98.869V23.6179H102.359C103.153 23.6179 103.806 23.4117 104.316 22.9993C104.827 22.5807 105.083 22.0483 105.083 21.402C105.083 20.7187 104.827 20.1617 104.316 19.7308C103.806 19.2938 103.153 19.0753 102.359 19.0753H98.2411V16.6932ZM109.782 26V11.8182H112.543V26H109.782Z" fill="black"/>
<defs>
<filter id="filter0_i_3042_105" x="4.25" y="4.25" width="24.5" height="24.5" filterUnits="userSpaceOnUse" color-interpolation-filters="sRGB">
<feFlood flood-opacity="0" result="BackgroundImageFix"/>
<feBlend mode="normal" in="SourceGraphic" in2="BackgroundImageFix" result="shape"/>
<feColorMatrix in="SourceAlpha" type="matrix" values="0 0 0 0 0 0 0 0 0 0 0 0 0 0 0 0 0 0 127 0" result="hardAlpha"/>
<feOffset/>
<feGaussianBlur stdDeviation="3"/>
<feComposite in2="hardAlpha" operator="arithmetic" k2="-1" k3="1"/>
<feColorMatrix type="matrix" values="0 0 0 0 1 0 0 0 0 1 0 0 0 0 1 0 0 0 0.5 0"/>
<feBlend mode="normal" in2="shape" result="effect1_innerShadow_3042_105"/>
</filter>
<filter id="filter1_i_3042_105" x="5" y="5" width="23" height="23" filterUnits="userSpaceOnUse" color-interpolation-filters="sRGB">
<feFlood flood-opacity="0" result="BackgroundImageFix"/>
<feBlend mode="normal" in="SourceGraphic" in2="BackgroundImageFix" result="shape"/>
<feColorMatrix in="SourceAlpha" type="matrix" values="0 0 0 0 0 0 0 0 0 0 0 0 0 0 0 0 0 0 127 0" result="hardAlpha"/>
<feOffset/>
<feGaussianBlur stdDeviation="3"/>
<feComposite in2="hardAlpha" operator="arithmetic" k2="-1" k3="1"/>
<feColorMatrix type="matrix" values="0 0 0 0 1 0 0 0 0 1 0 0 0 0 1 0 0 0 0.5 0"/>
<feBlend mode="normal" in2="shape" result="effect1_innerShadow_3042_105"/>
</filter>
<linearGradient id="paint0_linear_3042_105" x1="19.5" y1="2.5" x2="17" y2="35.5" gradientUnits="userSpaceOnUse">
<stop stop-color="#D989FF"/>
<stop offset="0.495192" stop-color="#3697FF"/>
<stop offset="1" stop-color="#0849DB"/>
</linearGradient>
<linearGradient id="paint1_linear_3042_105" x1="30.6136" y1="1.51515" x2="30.6136" y2="32.1818" gradientUnits="userSpaceOnUse">
<stop stop-color="#FEFFFF"/>
<stop offset="1" stop-color="#CADBF0"/>
</linearGradient>
<linearGradient id="paint2_linear_3042_105" x1="10" y1="8.5" x2="10" y2="11.5" gradientUnits="userSpaceOnUse">
<stop stop-color="#FF4A4E"/>
<stop offset="1" stop-color="#FF7073"/>
</linearGradient>
<linearGradient id="paint3_linear_3042_105" x1="14.5" y1="8.5" x2="14.5" y2="11.5" gradientUnits="userSpaceOnUse">
<stop stop-color="#EC9F1D"/>
<stop offset="1" stop-color="#F9AF33"/>
</linearGradient>
<linearGradient id="paint4_linear_3042_105" x1="19" y1="8.5" x2="19" y2="11.5" gradientUnits="userSpaceOnUse">
<stop stop-color="#209F37"/>
<stop offset="1" stop-color="#2EB145"/>
</linearGradient>
<linearGradient id="paint5_linear_3042_105" x1="9.30769" y1="15.3333" x2="13.4736" y2="19.4191" gradientUnits="userSpaceOnUse">
<stop stop-color="#AEA9D6"/>
<stop offset="1" stop-color="#BCB8DF"/>
</linearGradient>
<linearGradient id="paint6_linear_3042_105" x1="9" y1="19.3333" x2="13" y2="22.3333" gradientUnits="userSpaceOnUse">
<stop stop-color="#AEA9D6"/>
<stop offset="1" stop-color="#BCB8DF"/>
</linearGradient>
<linearGradient id="paint7_linear_3042_105" x1="9.15385" y1="23.3333" x2="13.2773" y2="26.9017" gradientUnits="userSpaceOnUse">
<stop stop-color="#AEA9D6"/>
<stop offset="1" stop-color="#BCB8DF"/>
</linearGradient>
</defs>
</svg>
