<svg width="135" height="34" viewBox="0 0 135 34" fill="none" xmlns="http://www.w3.org/2000/svg">
<g clip-path="url(#clip0_3056_194)">
<rect width="34" height="34" rx="9" fill="url(#paint0_linear_3056_194)"/>
<rect width="34" height="34" rx="9" fill="url(#paint1_linear_3056_194)"/>
<path d="M17 4.90202C12.5148 4.90202 7.94 9.36072 7.94 13.5538C7.94 16.1019 8.99475 18.2994 10.8843 19.668C11.3008 19.9697 11.6711 20.4781 11.7935 20.9903C11.9055 21.4587 12.0337 22.0294 12.1606 22.6342H21.84C21.967 22.0294 22.098 21.4587 22.21 20.9903C22.322 20.5218 22.7035 19.9697 23.12 19.668C25.0095 18.2994 26.06 16.1019 26.06 13.5538C26.06 9.36072 21.4852 4.90202 17 4.90202Z" fill="url(#paint2_linear_3056_194)"/>
<path d="M15 22.9997C15 16.9997 11.8508 14.2657 14.5 12.4999C16 11.5 18 11.5 19.5 12.4999C22.1494 14.2659 19 16.9997 19 22.9997" stroke="url(#paint3_linear_3056_194)" stroke-width="1.5"/>
<g filter="url(#filter0_f_3056_194)">
<ellipse cx="17" cy="9.5" rx="5" ry="4.5" fill="white"/>
</g>
<path fill-rule="evenodd" clip-rule="evenodd" d="M17 4.90202C12.5148 4.90202 7.94 9.36072 7.94 13.5538C7.94 16.1019 8.99475 18.2994 10.8843 19.668C11.3008 19.9697 11.6711 20.4781 11.7935 20.9903C11.9055 21.4587 12.0337 22.0294 12.1606 22.6342H21.84C21.967 22.0294 22.098 21.4587 22.21 20.9903C22.322 20.5218 22.7035 19.9697 23.12 19.668C25.0095 18.2994 26.06 16.1019 26.06 13.5538C26.06 9.36072 21.4852 4.90202 17 4.90202ZM21.47 23.5337H12.53C12.6725 24.3442 12.7862 26.1189 12.82 26.67C12.8556 27.2501 13.3158 28.6074 13.94 28.9082L14.2 28.9621C15.3876 29.2148 18.6124 29.2148 19.8 28.9621L20.06 28.9082C20.6842 28.6074 21.1444 27.2501 21.18 26.67C21.2138 26.1189 21.3275 24.3442 21.47 23.5337ZM7 13.5538C7 8.24707 11.5084 4 17 4C22.4916 4 27 8.24707 27 13.5538C27 16.6348 25.705 19.4349 23.2622 21.2042C23.1507 21.2849 23.1041 21.3698 23.0905 21.4274C22.9377 22.0663 22.7516 22.912 22.5819 23.7699C22.3461 24.9626 22.1541 26.1193 22.1132 26.7851C22.0228 28.2573 20.9234 29.455 19.4653 29.7654L19.2124 29.8255C17.6579 30.0582 16.2763 30.0582 14.7876 29.8255L14.5347 29.7654C13.0767 29.455 11.9772 28.2573 11.8868 26.7851C11.8459 26.1193 11.6539 24.9626 11.4181 23.7699C11.2484 22.912 11.0623 22.0663 10.9096 21.4274C10.8958 21.3698 10.8492 21.2849 10.7378 21.2042C8.29493 19.4349 7 16.6348 7 13.5538Z" fill="url(#paint4_linear_3056_194)"/>
<path d="M21.47 23.5337H12.53C12.6725 24.3442 12.7862 26.1189 12.82 26.67C12.8556 27.2501 13.3158 28.6074 13.94 28.9082L14.2 28.9621C15.3876 29.2148 18.6124 29.2148 19.8 28.9621L20.06 28.9082C20.6842 28.6074 21.1444 27.2501 21.18 26.67C21.2138 26.1189 21.3275 24.3442 21.47 23.5337Z" fill="url(#paint5_linear_3056_194)"/>
<path d="M21.47 23.5337H12.53C12.6725 24.3442 12.7862 26.1189 12.82 26.67C12.8556 27.2501 13.3158 27.6074 13.94 27.9082L14.2 27.9621C15.3876 28.2148 18.6124 28.2148 19.8 27.9621L20.06 27.9082C20.6842 27.6074 21.1444 27.2501 21.18 26.67C21.2138 26.1189 21.3275 24.3442 21.47 23.5337Z" fill="url(#paint6_linear_3056_194)"/>
</g>
<rect x="0.5" y="0.5" width="33" height="33" rx="8.5" stroke="#D1823F"/>
<path d="M40.0156 22.2514H42.8409C42.8778 22.83 43.1394 23.2763 43.6257 23.5902C44.1181 23.9041 44.7552 24.0611 45.5369 24.0611C46.331 24.0611 47.008 23.8918 47.5682 23.5533C48.1283 23.2086 48.4084 22.6761 48.4084 21.956C48.4084 21.5251 48.3007 21.1496 48.0852 20.8295C47.8759 20.5033 47.5774 20.2509 47.1896 20.0724C46.808 19.8939 46.3556 19.8047 45.8324 19.8047H43.5241V17.6349H45.8324C46.6141 17.6349 47.1989 17.4564 47.5866 17.0994C47.9744 16.7424 48.1683 16.2962 48.1683 15.7607C48.1683 15.1821 47.959 14.7173 47.5405 14.3665C47.1281 14.0095 46.5526 13.831 45.8139 13.831C45.063 13.831 44.4382 14.0002 43.9396 14.3388C43.4411 14.6712 43.1795 15.102 43.1548 15.6314H40.3665C40.3849 14.8374 40.625 14.1418 41.0866 13.5447C41.5545 12.9415 42.1823 12.4737 42.9702 12.1413C43.7642 11.8028 44.666 11.6335 45.6754 11.6335C46.728 11.6335 47.639 11.8028 48.4084 12.1413C49.1778 12.4799 49.7718 12.9477 50.1903 13.5447C50.6151 14.1418 50.8274 14.8281 50.8274 15.6037C50.8274 16.3854 50.5935 17.0256 50.1257 17.5241C49.6641 18.0166 49.0608 18.3705 48.3161 18.5859V18.7337C48.8639 18.7706 49.3501 18.9368 49.7749 19.2322C50.1996 19.5277 50.532 19.9186 50.772 20.4048C51.0121 20.8911 51.1321 21.442 51.1321 22.0575C51.1321 22.9254 50.892 23.6764 50.4119 24.3104C49.938 24.9444 49.2794 25.4337 48.4361 25.7784C47.599 26.117 46.6418 26.2862 45.5646 26.2862C44.5182 26.2862 43.5795 26.1231 42.7486 25.7969C41.9238 25.4645 41.2682 24.9967 40.782 24.3935C40.3018 23.7902 40.0464 23.0762 40.0156 22.2514ZM56.2899 26.3139C55.3912 26.3139 54.5787 26.1477 53.8524 25.8153C53.1261 25.4768 52.5506 24.9875 52.1258 24.3473C51.7073 23.7071 51.498 22.9223 51.498 21.9929C51.498 21.1927 51.6519 20.5341 51.9597 20.017C52.2674 19.5 52.6829 19.0907 53.2061 18.7891C53.7293 18.4875 54.3141 18.2597 54.9604 18.1058C55.6067 17.9519 56.2653 17.835 56.9362 17.755C57.7856 17.6565 58.475 17.5765 59.0044 17.5149C59.5338 17.4472 59.9185 17.3395 60.1585 17.1918C60.3986 17.044 60.5186 16.804 60.5186 16.4716V16.407C60.5186 15.6006 60.2909 14.9759 59.8354 14.5327C59.386 14.0895 58.7151 13.8679 57.8226 13.8679C56.8931 13.8679 56.1606 14.0741 55.6251 14.4865C55.0958 14.8928 54.7295 15.3452 54.5264 15.8438L51.932 15.2528C52.2397 14.3911 52.6891 13.6955 53.28 13.1662C53.877 12.6307 54.5633 12.2429 55.3389 12.0028C56.1145 11.7566 56.9301 11.6335 57.7856 11.6335C58.3519 11.6335 58.9521 11.7012 59.5861 11.8366C60.2262 11.9659 60.8233 12.206 61.3773 12.5568C61.9374 12.9077 62.396 13.4093 62.753 14.0618C63.11 14.7081 63.2885 15.5483 63.2885 16.5824V26H60.5925V24.0611H60.4817C60.3032 24.4181 60.0354 24.7689 59.6784 25.1136C59.3214 25.4583 58.8628 25.7446 58.3027 25.9723C57.7426 26.2 57.0716 26.3139 56.2899 26.3139ZM56.8901 24.098C57.6533 24.098 58.3058 23.9472 58.8474 23.6456C59.3953 23.344 59.8107 22.95 60.0939 22.4638C60.3832 21.9714 60.5278 21.4451 60.5278 20.8849V19.0568C60.4293 19.1553 60.2385 19.2476 59.9554 19.3338C59.6784 19.4138 59.3614 19.4846 59.0044 19.5462C58.6474 19.6016 58.2996 19.6539 57.9611 19.7031C57.6225 19.7462 57.3394 19.7831 57.1116 19.8139C56.5761 19.8816 56.0868 19.9955 55.6436 20.1555C55.2066 20.3156 54.8557 20.5464 54.591 20.848C54.3325 21.1435 54.2033 21.5374 54.2033 22.0298C54.2033 22.7131 54.4556 23.2301 54.9604 23.581C55.4651 23.9257 56.1083 24.098 56.8901 24.098ZM73.1043 22.5838L77.6839 11.8182H80.066L74.1292 26H72.0795L66.2627 11.8182H68.6171L73.1043 22.5838ZM67.8508 11.8182V26H65.1455V11.8182H67.8508ZM78.4317 26V11.8182H81.1185V26H78.4317ZM89.0901 26.2862C87.6928 26.2862 86.4895 25.9877 85.48 25.3906C84.4767 24.7874 83.7011 23.9411 83.1533 22.8516C82.6116 21.7559 82.3408 20.4725 82.3408 19.0014C82.3408 17.5488 82.6116 16.2685 83.1533 15.1605C83.7011 14.0526 84.4644 13.1877 85.4431 12.5661C86.4279 11.9444 87.5789 11.6335 88.8962 11.6335C89.6964 11.6335 90.4719 11.7659 91.2229 12.0305C91.9738 12.2952 92.6478 12.7107 93.2449 13.277C93.842 13.8433 94.3128 14.5788 94.6575 15.4837C95.0022 16.3823 95.1746 17.4749 95.1746 18.7614V19.7401H83.9012V17.6719H92.4693C92.4693 16.9455 92.3216 16.3023 92.0262 15.7422C91.7307 15.1759 91.3152 14.7296 90.7797 14.4034C90.2503 14.0772 89.6287 13.9141 88.9146 13.9141C88.1391 13.9141 87.462 14.1049 86.8834 14.4865C86.311 14.862 85.8678 15.3544 85.5539 15.9638C85.2461 16.567 85.0922 17.2225 85.0922 17.9304V19.5462C85.0922 20.4941 85.2584 21.3004 85.5908 21.9652C85.9293 22.63 86.4002 23.1378 87.0034 23.4886C87.6066 23.8333 88.3114 24.0057 89.1178 24.0057C89.641 24.0057 90.118 23.9318 90.5489 23.7841C90.9798 23.6302 91.3521 23.4025 91.6661 23.1009C91.98 22.7992 92.22 22.4268 92.3862 21.9837L94.9992 22.4545C94.7899 23.224 94.4144 23.898 93.8727 24.4766C93.3372 25.049 92.6632 25.4953 91.8507 25.8153C91.0444 26.1293 90.1242 26.2862 89.0901 26.2862ZM95.1666 14.2003V11.8182H107.132V14.2003H102.507V26H99.8107V14.2003H95.1666ZM108.232 26V11.8182H110.993V17.7642H112.323L117.004 11.8182H120.42L114.926 18.7152L120.485 26H117.059L112.784 20.331H110.993V26H108.232ZM123.514 22.1314L129.765 11.8182H132.738V26H130.033V15.6776L123.81 26H120.809V11.8182H123.514V22.1314Z" fill="black"/>
<defs>
<filter id="filter0_f_3056_194" x="6" y="-1" width="22" height="21" filterUnits="userSpaceOnUse" color-interpolation-filters="sRGB">
<feFlood flood-opacity="0" result="BackgroundImageFix"/>
<feBlend mode="normal" in="SourceGraphic" in2="BackgroundImageFix" result="shape"/>
<feGaussianBlur stdDeviation="3" result="effect1_foregroundBlur_3056_194"/>
</filter>
<linearGradient id="paint0_linear_3056_194" x1="19.5" y1="2.5" x2="17" y2="35.5" gradientUnits="userSpaceOnUse">
<stop stop-color="#FFF6F2"/>
<stop offset="1" stop-color="#FFF4C2"/>
</linearGradient>
<linearGradient id="paint1_linear_3056_194" x1="19.5" y1="2.5" x2="17" y2="35.5" gradientUnits="userSpaceOnUse">
<stop stop-color="#FFF6F2"/>
<stop offset="1" stop-color="#FAD427"/>
</linearGradient>
<linearGradient id="paint2_linear_3056_194" x1="17" y1="4" x2="17" y2="29" gradientUnits="userSpaceOnUse">
<stop stop-color="#FFFCF9"/>
<stop offset="1" stop-color="#FFF69A"/>
</linearGradient>
<linearGradient id="paint3_linear_3056_194" x1="16.8012" y1="10.9629" x2="16.8012" y2="23" gradientUnits="userSpaceOnUse">
<stop stop-color="#E4AB06"/>
<stop offset="1" stop-color="#774307"/>
</linearGradient>
<linearGradient id="paint4_linear_3056_194" x1="17" y1="4" x2="17" y2="30.0583" gradientUnits="userSpaceOnUse">
<stop stop-color="#DF8549"/>
<stop offset="0.677885" stop-color="#814800"/>
<stop offset="0.962134" stop-color="#5E2900"/>
</linearGradient>
<linearGradient id="paint5_linear_3056_194" x1="17" y1="4" x2="17" y2="30.0583" gradientUnits="userSpaceOnUse">
<stop stop-color="#DF8549"/>
<stop offset="0.677885" stop-color="#814800"/>
<stop offset="0.962134" stop-color="#5E2900"/>
</linearGradient>
<linearGradient id="paint6_linear_3056_194" x1="17" y1="23.7115" x2="17" y2="28.0385" gradientUnits="userSpaceOnUse">
<stop stop-color="#B8620D"/>
<stop offset="1" stop-color="#5C2C00"/>
</linearGradient>
<clipPath id="clip0_3056_194">
<rect width="34" height="34" rx="9" fill="white"/>
</clipPath>
</defs>
</svg>
