<svg width="79" height="34" viewBox="0 0 79 34" fill="none" xmlns="http://www.w3.org/2000/svg">
<rect width="34" height="34" rx="9" fill="url(#paint0_linear_3045_107)"/>
<rect x="0.5" y="0.5" width="33" height="33" rx="8.5" stroke="black" stroke-opacity="0.3"/>
<g filter="url(#filter0_i_3045_107)">
<path d="M25.9999 7.6332C30.1664 12.6326 30.4999 20.6333 24.9999 25.1333C22.9465 26.8133 19.7084 27.5874 16.4563 27.8978C15.5196 27.9872 14.5944 27.5846 13.6598 27.4755C12.6119 27.3533 11.3731 27.7137 10.165 28.267C8.16028 29.1852 5.64927 28.9421 6.56613 26.9368C6.95199 26.0929 7.4491 24.0254 7.00417 23.211C4.31048 18.2806 4.46243 11.6785 7.00001 8.63342C12 2.63343 21.8335 2.63379 25.9999 7.6332Z" fill="url(#paint1_linear_3045_107)"/>
</g>
<path d="M16.7998 3.63379C20.4881 3.50595 24.1126 4.78316 26.2881 7.39355C30.5553 12.5142 30.9351 20.762 25.2373 25.4238C23.093 27.1781 19.7585 27.9597 16.4922 28.2715C15.9626 28.322 15.4492 28.2317 14.9766 28.127C14.4861 28.0182 14.0581 27.8992 13.6162 27.8477C12.6726 27.7376 11.5112 28.0634 10.3213 28.6084C9.27182 29.089 8.05165 29.2867 7.17676 29.0615C6.73394 28.9475 6.32401 28.708 6.12109 28.2803C5.91791 27.8519 5.97055 27.3371 6.22461 26.7812C6.40089 26.3957 6.61391 25.7008 6.72656 25.0029C6.78257 24.6559 6.8117 24.3196 6.80273 24.0293C6.7935 23.7316 6.74467 23.5185 6.6748 23.3906C5.29466 20.8643 4.64621 17.9176 4.66504 15.2129C4.68385 12.517 5.36721 10.0073 6.71191 8.39355C9.29043 5.29934 13.1059 3.76188 16.7998 3.63379Z" stroke="#A9114C" stroke-width="0.75"/>
<circle cx="12" cy="16.5" r="1.5" fill="url(#paint2_linear_3045_107)"/>
<circle cx="17" cy="16.5" r="1.5" fill="url(#paint3_linear_3045_107)"/>
<circle cx="22" cy="16.5" r="1.5" fill="url(#paint4_linear_3045_107)"/>
<g filter="url(#filter1_i_3045_107)">
<path d="M16.8252 4.38379C20.3451 4.26173 23.721 5.48416 25.7119 7.87305C29.7773 12.7512 30.0645 20.5047 24.7627 24.8428C22.8003 26.4484 19.6584 27.2154 16.4209 27.5244C16.014 27.5633 15.5963 27.496 15.1387 27.3945C14.6987 27.297 14.1958 27.161 13.7031 27.1035C12.551 26.9692 11.2349 27.3642 10.0088 27.9258C9.05367 28.3632 8.01582 28.503 7.36328 28.335C7.04256 28.2523 6.87152 28.1121 6.79883 27.959C6.72655 27.8066 6.70307 27.5393 6.90723 27.0928C7.11677 26.6345 7.34565 25.8733 7.4668 25.123C7.52765 24.7461 7.5636 24.3595 7.55273 24.0068C7.54207 23.6617 7.48558 23.3105 7.33301 23.0312C6.01965 20.6273 5.39697 17.8078 5.41504 15.2178C5.43319 12.6188 6.09529 10.3044 7.28809 8.87305C9.70949 5.96754 13.3109 4.50575 16.8252 4.38379Z" stroke="white" stroke-opacity="0.03" stroke-width="0.75"/>
</g>
<path d="M52.2401 11.8182V26H49.544V11.8182H52.2401ZM51.0675 18.4013V20.7834C50.6428 20.9557 50.1934 21.1096 49.7195 21.245C49.2455 21.3743 48.7469 21.4759 48.2237 21.5497C47.7005 21.6236 47.1558 21.6605 46.5895 21.6605C44.8352 21.6605 43.4411 21.2327 42.407 20.3771C41.3729 19.5154 40.8558 18.1982 40.8558 16.4254V11.7905H43.5426V16.4254C43.5426 17.0964 43.6657 17.6411 43.9119 18.0597C44.1581 18.4782 44.509 18.786 44.9645 18.983C45.42 19.1799 45.9616 19.2784 46.5895 19.2784C47.4205 19.2784 48.1868 19.2015 48.8885 19.0476C49.5964 18.8875 50.3227 18.6721 51.0675 18.4013ZM58.2196 26.3139C57.3209 26.3139 56.5084 26.1477 55.7821 25.8153C55.0558 25.4768 54.4802 24.9875 54.0555 24.3473C53.637 23.7071 53.4277 22.9223 53.4277 21.9929C53.4277 21.1927 53.5816 20.5341 53.8893 20.017C54.1971 19.5 54.6126 19.0907 55.1358 18.7891C55.659 18.4875 56.2437 18.2597 56.8901 18.1058C57.5364 17.9519 58.195 17.835 58.8659 17.755C59.7153 17.6565 60.4047 17.5765 60.9341 17.5149C61.4634 17.4472 61.8481 17.3395 62.0882 17.1918C62.3283 17.044 62.4483 16.804 62.4483 16.4716V16.407C62.4483 15.6006 62.2205 14.9759 61.7651 14.5327C61.3157 14.0895 60.6448 13.8679 59.7523 13.8679C58.8228 13.8679 58.0903 14.0741 57.5548 14.4865C57.0255 14.8928 56.6592 15.3452 56.4561 15.8438L53.8616 15.2528C54.1694 14.3911 54.6187 13.6955 55.2097 13.1662C55.8067 12.6307 56.493 12.2429 57.2686 12.0028C58.0442 11.7566 58.8597 11.6335 59.7153 11.6335C60.2816 11.6335 60.8818 11.7012 61.5158 11.8366C62.1559 11.9659 62.753 12.206 63.307 12.5568C63.8671 12.9077 64.3257 13.4093 64.6827 14.0618C65.0397 14.7081 65.2182 15.5483 65.2182 16.5824V26H62.5222V24.0611H62.4114C62.2329 24.4181 61.9651 24.7689 61.6081 25.1136C61.2511 25.4583 60.7925 25.7446 60.2324 25.9723C59.6722 26.2 59.0013 26.3139 58.2196 26.3139ZM58.8197 24.098C59.583 24.098 60.2355 23.9472 60.7771 23.6456C61.3249 23.344 61.7404 22.95 62.0236 22.4638C62.3129 21.9714 62.4575 21.4451 62.4575 20.8849V19.0568C62.359 19.1553 62.1682 19.2476 61.8851 19.3338C61.6081 19.4138 61.2911 19.4846 60.9341 19.5462C60.5771 19.6016 60.2293 19.6539 59.8908 19.7031C59.5522 19.7462 59.2691 19.7831 59.0413 19.8139C58.5058 19.8816 58.0165 19.9955 57.5733 20.1555C57.1363 20.3156 56.7854 20.5464 56.5207 20.848C56.2622 21.1435 56.1329 21.5374 56.1329 22.0298C56.1329 22.7131 56.3853 23.2301 56.8901 23.581C57.3948 23.9257 58.038 24.098 58.8197 24.098ZM65.3163 14.2003V11.8182H77.2822V14.2003H72.6565V26H69.9605V14.2003H65.3163Z" fill="black"/>
<defs>
<filter id="filter0_i_3045_107" x="4.28998" y="3.25" width="25.5888" height="26.2793" filterUnits="userSpaceOnUse" color-interpolation-filters="sRGB">
<feFlood flood-opacity="0" result="BackgroundImageFix"/>
<feBlend mode="normal" in="SourceGraphic" in2="BackgroundImageFix" result="shape"/>
<feColorMatrix in="SourceAlpha" type="matrix" values="0 0 0 0 0 0 0 0 0 0 0 0 0 0 0 0 0 0 127 0" result="hardAlpha"/>
<feOffset/>
<feGaussianBlur stdDeviation="3"/>
<feComposite in2="hardAlpha" operator="arithmetic" k2="-1" k3="1"/>
<feColorMatrix type="matrix" values="0 0 0 0 1 0 0 0 0 1 0 0 0 0 1 0 0 0 0.5 0"/>
<feBlend mode="normal" in2="shape" result="effect1_innerShadow_3045_107"/>
</filter>
<filter id="filter1_i_3045_107" x="5.03998" y="4" width="24.0892" height="24.7793" filterUnits="userSpaceOnUse" color-interpolation-filters="sRGB">
<feFlood flood-opacity="0" result="BackgroundImageFix"/>
<feBlend mode="normal" in="SourceGraphic" in2="BackgroundImageFix" result="shape"/>
<feColorMatrix in="SourceAlpha" type="matrix" values="0 0 0 0 0 0 0 0 0 0 0 0 0 0 0 0 0 0 127 0" result="hardAlpha"/>
<feOffset/>
<feGaussianBlur stdDeviation="3"/>
<feComposite in2="hardAlpha" operator="arithmetic" k2="-1" k3="1"/>
<feColorMatrix type="matrix" values="0 0 0 0 1 0 0 0 0 1 0 0 0 0 1 0 0 0 0.5 0"/>
<feBlend mode="normal" in2="shape" result="effect1_innerShadow_3045_107"/>
</filter>
<linearGradient id="paint0_linear_3045_107" x1="22.5" y1="2.5" x2="17" y2="35.5" gradientUnits="userSpaceOnUse">
<stop stop-color="#F4558F"/>
<stop offset="1" stop-color="#B325AD"/>
</linearGradient>
<linearGradient id="paint1_linear_3045_107" x1="14.0484" y1="0.748966" x2="14.0484" y2="36.5103" gradientUnits="userSpaceOnUse">
<stop stop-color="#F0FCFA"/>
<stop offset="1" stop-color="#E9A5E6"/>
</linearGradient>
<linearGradient id="paint2_linear_3045_107" x1="12" y1="15" x2="12" y2="18" gradientUnits="userSpaceOnUse">
<stop stop-color="#A9114C"/>
<stop offset="1" stop-color="#C34274"/>
</linearGradient>
<linearGradient id="paint3_linear_3045_107" x1="17" y1="15" x2="17" y2="18" gradientUnits="userSpaceOnUse">
<stop stop-color="#A9114C"/>
<stop offset="1" stop-color="#C34274"/>
</linearGradient>
<linearGradient id="paint4_linear_3045_107" x1="22" y1="15" x2="22" y2="18" gradientUnits="userSpaceOnUse">
<stop stop-color="#A9114C"/>
<stop offset="1" stop-color="#C34274"/>
</linearGradient>
</defs>
</svg>
