<svg width="34" height="34" viewBox="0 0 34 34" fill="none" xmlns="http://www.w3.org/2000/svg">
<g clip-path="url(#clip0_3061_285)">
<rect width="34" height="34" rx="9" fill="url(#paint0_linear_3061_285)"/>
<rect width="34" height="34" rx="9" fill="url(#paint1_linear_3061_285)"/>
<path d="M17 4.90202C12.5148 4.90202 7.94 9.36072 7.94 13.5538C7.94 16.1019 8.99475 18.2994 10.8843 19.668C11.3008 19.9697 11.6711 20.4781 11.7935 20.9903C11.9055 21.4587 12.0337 22.0294 12.1606 22.6342H21.84C21.967 22.0294 22.098 21.4587 22.21 20.9903C22.322 20.5218 22.7035 19.9697 23.12 19.668C25.0095 18.2994 26.06 16.1019 26.06 13.5538C26.06 9.36072 21.4852 4.90202 17 4.90202Z" fill="url(#paint2_linear_3061_285)"/>
<path d="M15 22.9997C15 16.9997 11.8508 14.2657 14.5 12.4999C16 11.5 18 11.5 19.5 12.4999C22.1494 14.2659 19 16.9997 19 22.9997" stroke="url(#paint3_linear_3061_285)" stroke-width="1.5"/>
<g filter="url(#filter0_f_3061_285)">
<ellipse cx="17" cy="9.5" rx="5" ry="4.5" fill="white"/>
</g>
<path fill-rule="evenodd" clip-rule="evenodd" d="M17 4.90202C12.5148 4.90202 7.94 9.36072 7.94 13.5538C7.94 16.1019 8.99475 18.2994 10.8843 19.668C11.3008 19.9697 11.6711 20.4781 11.7935 20.9903C11.9055 21.4587 12.0337 22.0294 12.1606 22.6342H21.84C21.967 22.0294 22.098 21.4587 22.21 20.9903C22.322 20.5218 22.7035 19.9697 23.12 19.668C25.0095 18.2994 26.06 16.1019 26.06 13.5538C26.06 9.36072 21.4852 4.90202 17 4.90202ZM21.47 23.5337H12.53C12.6725 24.3442 12.7862 26.1189 12.82 26.67C12.8556 27.2501 13.3158 28.6074 13.94 28.9082L14.2 28.9621C15.3876 29.2148 18.6124 29.2148 19.8 28.9621L20.06 28.9082C20.6842 28.6074 21.1444 27.2501 21.18 26.67C21.2138 26.1189 21.3275 24.3442 21.47 23.5337ZM7 13.5538C7 8.24707 11.5084 4 17 4C22.4916 4 27 8.24707 27 13.5538C27 16.6348 25.705 19.4349 23.2622 21.2042C23.1507 21.2849 23.1041 21.3698 23.0905 21.4274C22.9377 22.0663 22.7516 22.912 22.5819 23.7699C22.3461 24.9626 22.1541 26.1193 22.1132 26.7851C22.0228 28.2573 20.9234 29.455 19.4653 29.7654L19.2124 29.8255C17.6579 30.0582 16.2763 30.0582 14.7876 29.8255L14.5347 29.7654C13.0767 29.455 11.9772 28.2573 11.8868 26.7851C11.8459 26.1193 11.6539 24.9626 11.4181 23.7699C11.2484 22.912 11.0623 22.0663 10.9096 21.4274C10.8958 21.3698 10.8492 21.2849 10.7378 21.2042C8.29493 19.4349 7 16.6348 7 13.5538Z" fill="url(#paint4_linear_3061_285)"/>
<path d="M21.47 23.5337H12.53C12.6725 24.3442 12.7862 26.1189 12.82 26.67C12.8556 27.2501 13.3158 28.6074 13.94 28.9082L14.2 28.9621C15.3876 29.2148 18.6124 29.2148 19.8 28.9621L20.06 28.9082C20.6842 28.6074 21.1444 27.2501 21.18 26.67C21.2138 26.1189 21.3275 24.3442 21.47 23.5337Z" fill="url(#paint5_linear_3061_285)"/>
<path d="M21.47 23.5337H12.53C12.6725 24.3442 12.7862 26.1189 12.82 26.67C12.8556 27.2501 13.3158 27.6074 13.94 27.9082L14.2 27.9621C15.3876 28.2148 18.6124 28.2148 19.8 27.9621L20.06 27.9082C20.6842 27.6074 21.1444 27.2501 21.18 26.67C21.2138 26.1189 21.3275 24.3442 21.47 23.5337Z" fill="url(#paint6_linear_3061_285)"/>
</g>
<rect x="0.5" y="0.5" width="33" height="33" rx="8.5" stroke="#D1823F"/>
<defs>
<filter id="filter0_f_3061_285" x="6" y="-1" width="22" height="21" filterUnits="userSpaceOnUse" color-interpolation-filters="sRGB">
<feFlood flood-opacity="0" result="BackgroundImageFix"/>
<feBlend mode="normal" in="SourceGraphic" in2="BackgroundImageFix" result="shape"/>
<feGaussianBlur stdDeviation="3" result="effect1_foregroundBlur_3061_285"/>
</filter>
<linearGradient id="paint0_linear_3061_285" x1="19.5" y1="2.5" x2="17" y2="35.5" gradientUnits="userSpaceOnUse">
<stop stop-color="#FFF6F2"/>
<stop offset="1" stop-color="#FFF4C2"/>
</linearGradient>
<linearGradient id="paint1_linear_3061_285" x1="19.5" y1="2.5" x2="17" y2="35.5" gradientUnits="userSpaceOnUse">
<stop stop-color="#FFF6F2"/>
<stop offset="1" stop-color="#FAD427"/>
</linearGradient>
<linearGradient id="paint2_linear_3061_285" x1="17" y1="4" x2="17" y2="29" gradientUnits="userSpaceOnUse">
<stop stop-color="#FFFCF9"/>
<stop offset="1" stop-color="#FFF69A"/>
</linearGradient>
<linearGradient id="paint3_linear_3061_285" x1="16.8012" y1="10.9629" x2="16.8012" y2="23" gradientUnits="userSpaceOnUse">
<stop stop-color="#E4AB06"/>
<stop offset="1" stop-color="#774307"/>
</linearGradient>
<linearGradient id="paint4_linear_3061_285" x1="17" y1="4" x2="17" y2="30.0583" gradientUnits="userSpaceOnUse">
<stop stop-color="#DF8549"/>
<stop offset="0.677885" stop-color="#814800"/>
<stop offset="0.962134" stop-color="#5E2900"/>
</linearGradient>
<linearGradient id="paint5_linear_3061_285" x1="17" y1="4" x2="17" y2="30.0583" gradientUnits="userSpaceOnUse">
<stop stop-color="#DF8549"/>
<stop offset="0.677885" stop-color="#814800"/>
<stop offset="0.962134" stop-color="#5E2900"/>
</linearGradient>
<linearGradient id="paint6_linear_3061_285" x1="17" y1="23.7115" x2="17" y2="28.0385" gradientUnits="userSpaceOnUse">
<stop stop-color="#B8620D"/>
<stop offset="1" stop-color="#5C2C00"/>
</linearGradient>
<clipPath id="clip0_3061_285">
<rect width="34" height="34" rx="9" fill="white"/>
</clipPath>
</defs>
</svg>
