<svg width="133" height="34" viewBox="0 0 133 34" fill="none" xmlns="http://www.w3.org/2000/svg">
<path d="M46.8295 26.2862C45.4569 26.2862 44.2751 25.9754 43.2841 25.3537C42.2992 24.7259 41.5421 23.861 41.0128 22.7592C40.4834 21.6574 40.2188 20.3956 40.2188 18.9737C40.2188 17.5334 40.4896 16.2623 41.0312 15.1605C41.5729 14.0526 42.3362 13.1877 43.321 12.5661C44.3059 11.9444 45.4661 11.6335 46.8018 11.6335C47.879 11.6335 48.8393 11.8336 49.6825 12.2337C50.5258 12.6276 51.206 13.1816 51.723 13.8956C52.2462 14.6096 52.5571 15.4437 52.6555 16.3977H49.9688C49.821 15.733 49.4825 15.1605 48.9531 14.6804C48.4299 14.2003 47.7282 13.9602 46.848 13.9602C46.0786 13.9602 45.4046 14.1634 44.826 14.5696C44.2536 14.9697 43.8073 15.5421 43.4872 16.2869C43.1671 17.0256 43.0071 17.8996 43.0071 18.9091C43.0071 19.9432 43.1641 20.8357 43.478 21.5866C43.7919 22.3376 44.2351 22.9193 44.8075 23.3317C45.3861 23.7441 46.0663 23.9503 46.848 23.9503C47.3712 23.9503 47.8452 23.8549 48.2699 23.6641C48.7008 23.4671 49.0608 23.187 49.3501 22.8239C49.6456 22.4607 49.8518 22.0237 49.9688 21.5128H52.6555C52.5571 22.4299 52.2585 23.2486 51.7599 23.9688C51.2614 24.6889 50.5935 25.2552 49.7564 25.6676C48.9254 26.08 47.9498 26.2862 46.8295 26.2862ZM53.7878 26V11.8182H65.3567V26H62.6514V14.2003H56.4746V26H53.7878ZM67.2275 31.3182V11.8182H69.9236V14.1172H70.1544C70.3144 13.8217 70.5453 13.4801 70.8469 13.0923C71.1485 12.7045 71.567 12.366 72.1025 12.0767C72.6381 11.7812 73.3459 11.6335 74.2261 11.6335C75.371 11.6335 76.3928 11.9228 77.2915 12.5014C78.1901 13.08 78.8949 13.9141 79.4058 15.0036C79.9229 16.093 80.1814 17.4041 80.1814 18.9368C80.1814 20.4695 79.9259 21.7836 79.415 22.8793C78.9042 23.9687 78.2024 24.8089 77.3099 25.3999C76.4174 25.9846 75.3987 26.277 74.2538 26.277C73.3921 26.277 72.6873 26.1323 72.1395 25.843C71.5978 25.5537 71.1731 25.2152 70.8653 24.8274C70.5576 24.4396 70.3206 24.0949 70.1544 23.7933H69.9882V31.3182H67.2275ZM69.9328 18.9091C69.9328 19.9062 70.0774 20.7803 70.3667 21.5312C70.656 22.2822 71.0746 22.87 71.6224 23.2947C72.1703 23.7133 72.8412 23.9226 73.6352 23.9226C74.46 23.9226 75.1494 23.7041 75.7034 23.267C76.2574 22.8239 76.6759 22.2237 76.9591 21.4666C77.2484 20.7095 77.393 19.857 77.393 18.9091C77.393 17.9735 77.2515 17.1333 76.9683 16.3885C76.6913 15.6437 76.2728 15.0559 75.7126 14.625C75.1587 14.1941 74.4662 13.9787 73.6352 13.9787C72.835 13.9787 72.1579 14.1849 71.604 14.5973C71.0561 15.0097 70.6407 15.5852 70.3575 16.3239C70.0744 17.0625 69.9328 17.9242 69.9328 18.9091ZM85.5815 26.3139C84.6829 26.3139 83.8704 26.1477 83.144 25.8153C82.4177 25.4768 81.8422 24.9875 81.4175 24.3473C80.9989 23.7071 80.7896 22.9223 80.7896 21.9929C80.7896 21.1927 80.9435 20.5341 81.2513 20.017C81.5591 19.5 81.9745 19.0907 82.4977 18.7891C83.0209 18.4875 83.6057 18.2597 84.252 18.1058C84.8983 17.9519 85.5569 17.835 86.2279 17.755C87.0773 17.6565 87.7667 17.5765 88.296 17.5149C88.8254 17.4472 89.2101 17.3395 89.4502 17.1918C89.6902 17.044 89.8102 16.804 89.8102 16.4716V16.407C89.8102 15.6006 89.5825 14.9759 89.127 14.5327C88.6777 14.0895 88.0067 13.8679 87.1142 13.8679C86.1848 13.8679 85.4523 14.0741 84.9168 14.4865C84.3874 14.8928 84.0212 15.3452 83.8181 15.8438L81.2236 15.2528C81.5314 14.3911 81.9807 13.6955 82.5716 13.1662C83.1687 12.6307 83.855 12.2429 84.6306 12.0028C85.4061 11.7566 86.2217 11.6335 87.0773 11.6335C87.6436 11.6335 88.2437 11.7012 88.8777 11.8366C89.5179 11.9659 90.1149 12.206 90.6689 12.5568C91.229 12.9077 91.6876 13.4093 92.0446 14.0618C92.4016 14.7081 92.5801 15.5483 92.5801 16.5824V26H89.8841V24.0611H89.7733C89.5948 24.4181 89.3271 24.7689 88.97 25.1136C88.613 25.4583 88.1545 25.7446 87.5943 25.9723C87.0342 26.2 86.3633 26.3139 85.5815 26.3139ZM86.1817 24.098C86.9449 24.098 87.5974 23.9472 88.1391 23.6456C88.6869 23.344 89.1024 22.95 89.3855 22.4638C89.6748 21.9714 89.8195 21.4451 89.8195 20.8849V19.0568C89.721 19.1553 89.5302 19.2476 89.247 19.3338C88.97 19.4138 88.653 19.4846 88.296 19.5462C87.939 19.6016 87.5913 19.6539 87.2527 19.7031C86.9142 19.7462 86.631 19.7831 86.4033 19.8139C85.8678 19.8816 85.3784 19.9955 84.9352 20.1555C84.4982 20.3156 84.1474 20.5464 83.8827 20.848C83.6242 21.1435 83.4949 21.5374 83.4949 22.0298C83.4949 22.7131 83.7473 23.2301 84.252 23.581C84.7567 23.9257 85.4 24.098 86.1817 24.098ZM94.4372 26V11.8182H100.319C101.919 11.8182 103.187 12.1598 104.123 12.843C105.058 13.5201 105.526 14.4403 105.526 15.6037C105.526 16.4347 105.261 17.0933 104.732 17.5795C104.203 18.0658 103.501 18.392 102.627 18.5582C103.261 18.6321 103.842 18.8229 104.372 19.1307C104.901 19.4323 105.326 19.8385 105.646 20.3494C105.972 20.8603 106.135 21.4697 106.135 22.1776C106.135 22.9285 105.941 23.5933 105.554 24.1719C105.166 24.7443 104.603 25.1937 103.864 25.5199C103.132 25.84 102.248 26 101.214 26H94.4372ZM97.0316 23.6918H101.214C101.897 23.6918 102.433 23.5286 102.821 23.2024C103.208 22.8762 103.402 22.433 103.402 21.8729C103.402 21.2143 103.208 20.6972 102.821 20.3217C102.433 19.9401 101.897 19.7493 101.214 19.7493H97.0316V23.6918ZM97.0316 17.7273H100.346C100.863 17.7273 101.306 17.6534 101.676 17.5057C102.051 17.358 102.337 17.1487 102.534 16.8778C102.738 16.6009 102.839 16.2746 102.839 15.8991C102.839 15.3513 102.614 14.9235 102.165 14.6158C101.716 14.308 101.1 14.1541 100.319 14.1541H97.0316V17.7273ZM107.344 26V11.8182H110.104V17.7642H111.434L116.115 11.8182H119.531L114.038 18.7152L119.596 26H116.17L111.896 20.331H110.104V26H107.344ZM124.047 26.3139C123.149 26.3139 122.336 26.1477 121.61 25.8153C120.884 25.4768 120.308 24.9875 119.883 24.3473C119.465 23.7071 119.255 22.9223 119.255 21.9929C119.255 21.1927 119.409 20.5341 119.717 20.017C120.025 19.5 120.44 19.0907 120.964 18.7891C121.487 18.4875 122.071 18.2597 122.718 18.1058C123.364 17.9519 124.023 17.835 124.694 17.755C125.543 17.6565 126.232 17.5765 126.762 17.5149C127.291 17.4472 127.676 17.3395 127.916 17.1918C128.156 17.044 128.276 16.804 128.276 16.4716V16.407C128.276 15.6006 128.048 14.9759 127.593 14.5327C127.143 14.0895 126.473 13.8679 125.58 13.8679C124.651 13.8679 123.918 14.0741 123.383 14.4865C122.853 14.8928 122.487 15.3452 122.284 15.8438L119.689 15.2528C119.997 14.3911 120.446 13.6955 121.037 13.1662C121.634 12.6307 122.321 12.2429 123.096 12.0028C123.872 11.7566 124.687 11.6335 125.543 11.6335C126.109 11.6335 126.71 11.7012 127.343 11.8366C127.984 11.9659 128.581 12.206 129.135 12.5568C129.695 12.9077 130.153 13.4093 130.51 14.0618C130.867 14.7081 131.046 15.5483 131.046 16.5824V26H128.35V24.0611H128.239C128.061 24.4181 127.793 24.7689 127.436 25.1136C127.079 25.4583 126.62 25.7446 126.06 25.9723C125.5 26.2 124.829 26.3139 124.047 26.3139ZM124.647 24.098C125.411 24.098 126.063 23.9472 126.605 23.6456C127.153 23.344 127.568 22.95 127.851 22.4638C128.141 21.9714 128.285 21.4451 128.285 20.8849V19.0568C128.187 19.1553 127.996 19.2476 127.713 19.3338C127.436 19.4138 127.119 19.4846 126.762 19.5462C126.405 19.6016 126.057 19.6539 125.718 19.7031C125.38 19.7462 125.097 19.7831 124.869 19.8139C124.334 19.8816 123.844 19.9955 123.401 20.1555C122.964 20.3156 122.613 20.5464 122.348 20.848C122.09 21.1435 121.961 21.5374 121.961 22.0298C121.961 22.7131 122.213 23.2301 122.718 23.581C123.223 23.9257 123.866 24.098 124.647 24.098Z" fill="black"/>
<rect width="34" height="34" rx="9" fill="url(#paint0_linear_3067_341)"/>
<rect x="0.5" y="0.5" width="33" height="33" rx="8.5" stroke="black" stroke-opacity="0.35"/>
<g filter="url(#filter0_i_3067_341)">
<path d="M17.5 5C23.8513 5 29 10.1487 29 16.5C29 22.8513 23.8513 28 17.5 28C11.1487 28 6 22.8513 6 16.5C6 10.1487 11.1487 5 17.5 5Z" fill="url(#paint1_linear_3067_341)"/>
</g>
<path d="M17.5 4.625C24.0584 4.625 29.375 9.94162 29.375 16.5C29.375 23.0584 24.0584 28.375 17.5 28.375C10.9416 28.375 5.625 23.0584 5.625 16.5C5.625 9.94162 10.9416 4.625 17.5 4.625Z" stroke="#747685" stroke-width="0.75"/>
<g filter="url(#filter1_i_3067_341)">
<path d="M17.5 5.375C23.6442 5.375 28.625 10.3558 28.625 16.5C28.625 22.6442 23.6442 27.625 17.5 27.625C11.3558 27.625 6.375 22.6442 6.375 16.5C6.375 10.3558 11.3558 5.375 17.5 5.375Z" stroke="#FFFCF9" stroke-opacity="0.02" stroke-width="0.75"/>
</g>
<path d="M17.2978 14.8589C17.8353 14.8589 18.2711 15.294 18.2711 15.8306V22.3088C18.2711 22.8454 17.8353 23.2805 17.2978 23.2805C16.7602 23.2805 16.3245 22.8454 16.3245 22.3088V15.8306C16.3245 15.294 16.7602 14.8589 17.2978 14.8589Z" fill="url(#paint2_linear_3067_341)"/>
<path d="M17.2977 12.5913C18.0145 12.5913 18.5955 12.0112 18.5955 11.2956C18.5955 10.5801 18.0145 10 17.2977 10C16.581 10 16 10.5801 16 11.2956C16 12.0112 16.581 12.5913 17.2977 12.5913Z" fill="url(#paint3_linear_3067_341)"/>
<defs>
<filter id="filter0_i_3067_341" x="5.25" y="4.25" width="24.5" height="24.5" filterUnits="userSpaceOnUse" color-interpolation-filters="sRGB">
<feFlood flood-opacity="0" result="BackgroundImageFix"/>
<feBlend mode="normal" in="SourceGraphic" in2="BackgroundImageFix" result="shape"/>
<feColorMatrix in="SourceAlpha" type="matrix" values="0 0 0 0 0 0 0 0 0 0 0 0 0 0 0 0 0 0 127 0" result="hardAlpha"/>
<feOffset/>
<feGaussianBlur stdDeviation="3"/>
<feComposite in2="hardAlpha" operator="arithmetic" k2="-1" k3="1"/>
<feColorMatrix type="matrix" values="0 0 0 0 1 0 0 0 0 1 0 0 0 0 1 0 0 0 0.5 0"/>
<feBlend mode="normal" in2="shape" result="effect1_innerShadow_3067_341"/>
</filter>
<filter id="filter1_i_3067_341" x="6" y="5" width="23" height="23" filterUnits="userSpaceOnUse" color-interpolation-filters="sRGB">
<feFlood flood-opacity="0" result="BackgroundImageFix"/>
<feBlend mode="normal" in="SourceGraphic" in2="BackgroundImageFix" result="shape"/>
<feColorMatrix in="SourceAlpha" type="matrix" values="0 0 0 0 0 0 0 0 0 0 0 0 0 0 0 0 0 0 127 0" result="hardAlpha"/>
<feOffset/>
<feGaussianBlur stdDeviation="3"/>
<feComposite in2="hardAlpha" operator="arithmetic" k2="-1" k3="1"/>
<feColorMatrix type="matrix" values="0 0 0 0 1 0 0 0 0 1 0 0 0 0 1 0 0 0 0.5 0"/>
<feBlend mode="normal" in2="shape" result="effect1_innerShadow_3067_341"/>
</filter>
<linearGradient id="paint0_linear_3067_341" x1="22.5" y1="2.5" x2="17" y2="35.5" gradientUnits="userSpaceOnUse">
<stop stop-color="#D5D9E5"/>
<stop offset="1" stop-color="#8D93AB"/>
</linearGradient>
<linearGradient id="paint1_linear_3067_341" x1="31.6136" y1="1.51515" x2="31.6136" y2="32.1818" gradientUnits="userSpaceOnUse">
<stop stop-color="#FCFFFF"/>
<stop offset="1" stop-color="#D7D5DF"/>
</linearGradient>
<linearGradient id="paint2_linear_3067_341" x1="17.2978" y1="14.8589" x2="17.2978" y2="23.2805" gradientUnits="userSpaceOnUse">
<stop stop-color="#4B4D55"/>
<stop offset="1" stop-color="#202125"/>
</linearGradient>
<linearGradient id="paint3_linear_3067_341" x1="17.2977" y1="10" x2="17.2977" y2="12.5913" gradientUnits="userSpaceOnUse">
<stop stop-color="#6B7076"/>
<stop offset="1" stop-color="#4B4D55"/>
</linearGradient>
</defs>
</svg>
