<svg width="34" height="34" viewBox="0 0 34 34" fill="none" xmlns="http://www.w3.org/2000/svg">
<rect width="34" height="34" rx="9" fill="url(#paint0_linear_3045_118)"/>
<rect x="0.5" y="0.5" width="33" height="33" rx="8.5" stroke="black" stroke-opacity="0.3"/>
<g filter="url(#filter0_i_3045_118)">
<path d="M25.9999 7.6332C30.1664 12.6326 30.4999 20.6333 24.9999 25.1333C22.9465 26.8133 19.7084 27.5874 16.4563 27.8978C15.5196 27.9872 14.5944 27.5846 13.6598 27.4755C12.6119 27.3533 11.3731 27.7137 10.165 28.267C8.16028 29.1852 5.64927 28.9421 6.56613 26.9368C6.95199 26.0929 7.4491 24.0254 7.00417 23.211C4.31048 18.2806 4.46243 11.6785 7.00001 8.63342C12 2.63343 21.8335 2.63379 25.9999 7.6332Z" fill="url(#paint1_linear_3045_118)"/>
</g>
<path d="M16.7998 3.63379C20.4881 3.50595 24.1126 4.78316 26.2881 7.39355C30.5553 12.5142 30.9351 20.762 25.2373 25.4238C23.093 27.1781 19.7585 27.9597 16.4922 28.2715C15.9626 28.322 15.4492 28.2317 14.9766 28.127C14.4861 28.0182 14.0581 27.8992 13.6162 27.8477C12.6726 27.7376 11.5112 28.0634 10.3213 28.6084C9.27182 29.089 8.05165 29.2867 7.17676 29.0615C6.73394 28.9475 6.32401 28.708 6.12109 28.2803C5.91791 27.8519 5.97055 27.3371 6.22461 26.7812C6.40089 26.3957 6.61391 25.7008 6.72656 25.0029C6.78257 24.6559 6.8117 24.3196 6.80273 24.0293C6.7935 23.7316 6.74467 23.5185 6.6748 23.3906C5.29466 20.8643 4.64621 17.9176 4.66504 15.2129C4.68385 12.517 5.36721 10.0073 6.71191 8.39355C9.29043 5.29934 13.1059 3.76188 16.7998 3.63379Z" stroke="#A9114C" stroke-width="0.75"/>
<circle cx="12" cy="16.5" r="1.5" fill="url(#paint2_linear_3045_118)"/>
<circle cx="17" cy="16.5" r="1.5" fill="url(#paint3_linear_3045_118)"/>
<circle cx="22" cy="16.5" r="1.5" fill="url(#paint4_linear_3045_118)"/>
<g filter="url(#filter1_i_3045_118)">
<path d="M16.8252 4.38379C20.3451 4.26173 23.721 5.48416 25.7119 7.87305C29.7773 12.7512 30.0645 20.5047 24.7627 24.8428C22.8003 26.4484 19.6584 27.2154 16.4209 27.5244C16.014 27.5633 15.5963 27.496 15.1387 27.3945C14.6987 27.297 14.1958 27.161 13.7031 27.1035C12.551 26.9692 11.2349 27.3642 10.0088 27.9258C9.05367 28.3632 8.01582 28.503 7.36328 28.335C7.04256 28.2523 6.87152 28.1121 6.79883 27.959C6.72655 27.8066 6.70307 27.5393 6.90723 27.0928C7.11677 26.6345 7.34565 25.8733 7.4668 25.123C7.52765 24.7461 7.5636 24.3595 7.55273 24.0068C7.54207 23.6617 7.48558 23.3105 7.33301 23.0312C6.01965 20.6273 5.39697 17.8078 5.41504 15.2178C5.43319 12.6188 6.09529 10.3044 7.28809 8.87305C9.70949 5.96754 13.3109 4.50575 16.8252 4.38379Z" stroke="white" stroke-opacity="0.03" stroke-width="0.75"/>
</g>
<defs>
<filter id="filter0_i_3045_118" x="4.28998" y="3.25" width="25.5888" height="26.2793" filterUnits="userSpaceOnUse" color-interpolation-filters="sRGB">
<feFlood flood-opacity="0" result="BackgroundImageFix"/>
<feBlend mode="normal" in="SourceGraphic" in2="BackgroundImageFix" result="shape"/>
<feColorMatrix in="SourceAlpha" type="matrix" values="0 0 0 0 0 0 0 0 0 0 0 0 0 0 0 0 0 0 127 0" result="hardAlpha"/>
<feOffset/>
<feGaussianBlur stdDeviation="3"/>
<feComposite in2="hardAlpha" operator="arithmetic" k2="-1" k3="1"/>
<feColorMatrix type="matrix" values="0 0 0 0 1 0 0 0 0 1 0 0 0 0 1 0 0 0 0.5 0"/>
<feBlend mode="normal" in2="shape" result="effect1_innerShadow_3045_118"/>
</filter>
<filter id="filter1_i_3045_118" x="5.03998" y="4" width="24.0892" height="24.7793" filterUnits="userSpaceOnUse" color-interpolation-filters="sRGB">
<feFlood flood-opacity="0" result="BackgroundImageFix"/>
<feBlend mode="normal" in="SourceGraphic" in2="BackgroundImageFix" result="shape"/>
<feColorMatrix in="SourceAlpha" type="matrix" values="0 0 0 0 0 0 0 0 0 0 0 0 0 0 0 0 0 0 127 0" result="hardAlpha"/>
<feOffset/>
<feGaussianBlur stdDeviation="3"/>
<feComposite in2="hardAlpha" operator="arithmetic" k2="-1" k3="1"/>
<feColorMatrix type="matrix" values="0 0 0 0 1 0 0 0 0 1 0 0 0 0 1 0 0 0 0.5 0"/>
<feBlend mode="normal" in2="shape" result="effect1_innerShadow_3045_118"/>
</filter>
<linearGradient id="paint0_linear_3045_118" x1="22.5" y1="2.5" x2="17" y2="35.5" gradientUnits="userSpaceOnUse">
<stop stop-color="#F4558F"/>
<stop offset="1" stop-color="#B325AD"/>
</linearGradient>
<linearGradient id="paint1_linear_3045_118" x1="14.0484" y1="0.748966" x2="14.0484" y2="36.5103" gradientUnits="userSpaceOnUse">
<stop stop-color="#F0FCFA"/>
<stop offset="1" stop-color="#E9A5E6"/>
</linearGradient>
<linearGradient id="paint2_linear_3045_118" x1="12" y1="15" x2="12" y2="18" gradientUnits="userSpaceOnUse">
<stop stop-color="#A9114C"/>
<stop offset="1" stop-color="#C34274"/>
</linearGradient>
<linearGradient id="paint3_linear_3045_118" x1="17" y1="15" x2="17" y2="18" gradientUnits="userSpaceOnUse">
<stop stop-color="#A9114C"/>
<stop offset="1" stop-color="#C34274"/>
</linearGradient>
<linearGradient id="paint4_linear_3045_118" x1="22" y1="15" x2="22" y2="18" gradientUnits="userSpaceOnUse">
<stop stop-color="#A9114C"/>
<stop offset="1" stop-color="#C34274"/>
</linearGradient>
</defs>
</svg>
