<svg width="120" height="42" viewBox="0 0 120 42" fill="none" xmlns="http://www.w3.org/2000/svg">
<g filter="url(#filter0_d_3074_403)">
<g clip-path="url(#clip0_3074_403)">
<rect x="4" y="3" width="34" height="34" rx="9" fill="url(#paint0_linear_3074_403)" shape-rendering="crispEdges"/>
<g filter="url(#filter1_i_3074_403)">
<path d="M11 16V12C11 10.8954 11.8954 10 13 10H17C18.1046 10 19 10.8954 19 12V16C19 17.1046 18.1046 18 17 18H13C11.8954 18 11 17.1046 11 16Z" fill="url(#paint1_linear_3074_403)"/>
</g>
<path d="M17 9.625C18.3117 9.625 19.375 10.6883 19.375 12V16C19.375 17.3117 18.3117 18.375 17 18.375H13C11.6883 18.375 10.625 17.3117 10.625 16V12C10.625 10.6883 11.6883 9.625 13 9.625H17Z" stroke="#AB3C64" stroke-width="0.75"/>
<g filter="url(#filter2_i_3074_403)">
<path d="M13 10.375H17C17.8975 10.375 18.625 11.1025 18.625 12V16C18.625 16.8975 17.8975 17.625 17 17.625H13C12.1025 17.625 11.375 16.8975 11.375 16V12C11.375 11.1025 12.1025 10.375 13 10.375Z" stroke="white" stroke-opacity="0.02" stroke-width="0.75"/>
</g>
<g filter="url(#filter3_i_3074_403)">
<path d="M11 28V24C11 22.8954 11.8954 22 13 22H17C18.1046 22 19 22.8954 19 24V28C19 29.1046 18.1046 30 17 30H13C11.8954 30 11 29.1046 11 28Z" fill="url(#paint2_linear_3074_403)"/>
</g>
<path d="M17 21.625C18.3117 21.625 19.375 22.6883 19.375 24V28C19.375 29.3117 18.3117 30.375 17 30.375H13C11.6883 30.375 10.625 29.3117 10.625 28V24C10.625 22.6883 11.6883 21.625 13 21.625H17Z" stroke="#D1823F" stroke-width="0.75"/>
<g filter="url(#filter4_i_3074_403)">
<path d="M13 22.375H17C17.8975 22.375 18.625 23.1025 18.625 24V28C18.625 28.8975 17.8975 29.625 17 29.625H13C12.1025 29.625 11.375 28.8975 11.375 28V24C11.375 23.1025 12.1025 22.375 13 22.375Z" stroke="#FFFCF9" stroke-opacity="0.02" stroke-width="0.75"/>
</g>
<g filter="url(#filter5_i_3074_403)">
<path d="M23 16V12C23 10.8954 23.8954 10 25 10H29C30.1046 10 31 10.8954 31 12V16C31 17.1046 30.1046 18 29 18H25C23.8954 18 23 17.1046 23 16Z" fill="url(#paint3_linear_3074_403)"/>
</g>
<path d="M29 9.625C30.3117 9.625 31.375 10.6883 31.375 12V16C31.375 17.3117 30.3117 18.375 29 18.375H25C23.6883 18.375 22.625 17.3117 22.625 16V12C22.625 10.6883 23.6883 9.625 25 9.625H29Z" stroke="#839A35" stroke-width="0.75"/>
<g filter="url(#filter6_i_3074_403)">
<path d="M25 10.375H29C29.8975 10.375 30.625 11.1025 30.625 12V16C30.625 16.8975 29.8975 17.625 29 17.625H25C24.1025 17.625 23.375 16.8975 23.375 16V12C23.375 11.1025 24.1025 10.375 25 10.375Z" stroke="#FFFCF9" stroke-opacity="0.02" stroke-width="0.75"/>
</g>
<g filter="url(#filter7_i_3074_403)">
<path d="M23 28V24C23 22.8954 23.8954 22 25 22H29C30.1046 22 31 22.8954 31 24V28C31 29.1046 30.1046 30 29 30H25C23.8954 30 23 29.1046 23 28Z" fill="url(#paint4_linear_3074_403)"/>
</g>
<path d="M29 21.625C30.3117 21.625 31.375 22.6883 31.375 24V28C31.375 29.3117 30.3117 30.375 29 30.375H25C23.6883 30.375 22.625 29.3117 22.625 28V24C22.625 22.6883 23.6883 21.625 25 21.625H29Z" stroke="#6B91C3" stroke-width="0.75"/>
<g filter="url(#filter8_i_3074_403)">
<path d="M25 22.375H29C29.8975 22.375 30.625 23.1025 30.625 24V28C30.625 28.8975 29.8975 29.625 29 29.625H25C24.1025 29.625 23.375 28.8975 23.375 28V24C23.375 23.1025 24.1025 22.375 25 22.375Z" stroke="#FFFCF9" stroke-opacity="0.02" stroke-width="0.75"/>
</g>
<rect x="4.5" y="3.5" width="33" height="33" rx="8.5" stroke="white" stroke-opacity="0.6"/>
</g>
<rect x="3.5" y="2.5" width="35" height="35" rx="9.5" stroke="black" stroke-opacity="0.1" shape-rendering="crispEdges"/>
</g>
<path d="M58.7422 10.0909H62.1676L60.1179 22.4446C59.8963 23.7988 59.3793 24.9898 58.5668 26.0178C57.7604 27.0457 56.7325 27.849 55.483 28.4276C54.2334 29 52.8423 29.2862 51.3097 29.2862C49.7647 29.2862 48.4659 29 47.4134 28.4276C46.3608 27.849 45.6006 27.0457 45.1328 26.0178C44.6712 24.9898 44.5511 23.7988 44.7727 22.4446L46.8224 10.0909H50.2479L48.2443 22.1584C48.1151 22.9463 48.1735 23.648 48.4197 24.2635C48.6721 24.8729 49.0845 25.353 49.657 25.7038C50.2356 26.0547 50.9588 26.2301 51.8267 26.2301C52.6946 26.2301 53.4763 26.0547 54.1719 25.7038C54.8674 25.353 55.4368 24.8729 55.88 24.2635C56.3232 23.648 56.6094 22.9463 56.7386 22.1584L58.7422 10.0909ZM65.5111 20.6903L64.1447 29H60.7931L63.1567 14.8182H66.3606L65.9543 17.228H66.1298C66.5729 16.4339 67.1946 15.803 67.9948 15.3352C68.795 14.8674 69.7275 14.6335 70.7924 14.6335C71.7588 14.6335 72.5713 14.8428 73.2299 15.2614C73.8885 15.6738 74.3563 16.2801 74.6333 17.0803C74.9103 17.8743 74.9534 18.8376 74.7626 19.9702L73.2484 29H69.906L71.3187 20.4872C71.4787 19.5455 71.3587 18.8068 70.9586 18.2713C70.5646 17.7296 69.9307 17.4588 69.0566 17.4588C68.4718 17.4588 67.9333 17.5881 67.4408 17.8466C66.9484 18.099 66.5329 18.4652 66.1944 18.9453C65.862 19.4254 65.6342 20.0071 65.5111 20.6903ZM81.2892 10.0909L78.15 29H74.8076L77.9468 10.0909H81.2892ZM79.7669 29L82.1306 14.8182H85.4729L83.1092 29H79.7669ZM84.2911 12.7869C83.7556 12.7869 83.3124 12.6084 82.9615 12.2514C82.6107 11.8944 82.4568 11.4666 82.4999 10.968C82.543 10.4695 82.7676 10.0417 83.1739 9.68466C83.5863 9.32765 84.0572 9.14915 84.5865 9.14915C85.122 9.14915 85.5621 9.32765 85.9068 9.68466C86.2577 10.0417 86.4116 10.4695 86.3685 10.968C86.3315 11.4666 86.1069 11.8944 85.6945 12.2514C85.2882 12.6084 84.8204 12.7869 84.2911 12.7869ZM84.7354 29L87.0991 14.8182H90.3029L89.8967 17.228H90.0721C90.503 16.4155 91.097 15.7815 91.8541 15.326C92.6112 14.8643 93.4637 14.6335 94.4116 14.6335C95.3657 14.6335 96.1351 14.8674 96.7198 15.3352C97.3107 15.7969 97.6739 16.4278 97.8093 17.228H97.957C98.4002 16.4339 99.0342 15.803 99.859 15.3352C100.69 14.8674 101.623 14.6335 102.657 14.6335C103.949 14.6335 104.94 15.0459 105.63 15.8707C106.319 16.6955 106.531 17.8989 106.267 19.4808L104.679 29H101.336L102.851 19.9979C102.986 19.1177 102.851 18.4744 102.444 18.0682C102.044 17.6558 101.506 17.4496 100.828 17.4496C100.022 17.4496 99.3512 17.6989 98.8157 18.1974C98.2863 18.696 97.9601 19.3485 97.837 20.1548L96.3505 29H93.0728L94.6055 19.8594C94.7163 19.1269 94.587 18.5421 94.2177 18.1051C93.8545 17.6681 93.319 17.4496 92.6112 17.4496C92.131 17.4496 91.6725 17.5727 91.2354 17.8189C90.7984 18.0651 90.426 18.4098 90.1183 18.853C89.8167 19.29 89.6197 19.7978 89.5274 20.3764L88.087 29H84.7354ZM119.176 18.5668L116.101 18.8991C116.07 18.5852 115.975 18.2929 115.815 18.022C115.655 17.7512 115.415 17.5357 115.095 17.3757C114.781 17.2095 114.374 17.1264 113.876 17.1264C113.15 17.1264 112.512 17.2895 111.965 17.6158C111.417 17.942 111.106 18.3606 111.032 18.8714C110.964 19.2531 111.057 19.5639 111.309 19.804C111.561 20.044 112.029 20.2472 112.713 20.4134L115.058 20.9304C116.35 21.2197 117.28 21.6875 117.846 22.3338C118.418 22.9801 118.619 23.8265 118.446 24.8729C118.298 25.7469 117.917 26.5163 117.301 27.1811C116.686 27.8397 115.898 28.3537 114.938 28.723C113.984 29.0923 112.925 29.277 111.762 29.277C109.995 29.277 108.635 28.9107 107.681 28.1783C106.733 27.4396 106.262 26.424 106.268 25.1314L109.555 24.8175C109.592 25.4576 109.816 25.9408 110.229 26.267C110.641 26.5871 111.214 26.7502 111.946 26.7564C112.771 26.7625 113.467 26.5902 114.033 26.2393C114.605 25.8823 114.928 25.4484 115.002 24.9375C115.064 24.5559 114.968 24.245 114.716 24.005C114.47 23.7649 114.03 23.5741 113.396 23.4325L111.069 22.9247C109.752 22.6354 108.813 22.1461 108.253 21.4567C107.699 20.7611 107.511 19.884 107.69 18.8253C107.838 17.9635 108.198 17.2218 108.77 16.6001C109.349 15.9723 110.09 15.4891 110.995 15.1506C111.9 14.8059 112.913 14.6335 114.033 14.6335C115.719 14.6335 116.99 14.9875 117.846 15.6953C118.702 16.4032 119.145 17.3603 119.176 18.5668Z" fill="black"/>
<defs>
<filter id="filter0_d_3074_403" x="0" y="0" width="42" height="42" filterUnits="userSpaceOnUse" color-interpolation-filters="sRGB">
<feFlood flood-opacity="0" result="BackgroundImageFix"/>
<feColorMatrix in="SourceAlpha" type="matrix" values="0 0 0 0 0 0 0 0 0 0 0 0 0 0 0 0 0 0 127 0" result="hardAlpha"/>
<feOffset dy="1"/>
<feGaussianBlur stdDeviation="1.5"/>
<feComposite in2="hardAlpha" operator="out"/>
<feColorMatrix type="matrix" values="0 0 0 0 0 0 0 0 0 0 0 0 0 0 0 0 0 0 0.1 0"/>
<feBlend mode="normal" in2="BackgroundImageFix" result="effect1_dropShadow_3074_403"/>
<feBlend mode="normal" in="SourceGraphic" in2="effect1_dropShadow_3074_403" result="shape"/>
</filter>
<filter id="filter1_i_3074_403" x="10.25" y="9.25" width="9.5" height="9.5" filterUnits="userSpaceOnUse" color-interpolation-filters="sRGB">
<feFlood flood-opacity="0" result="BackgroundImageFix"/>
<feBlend mode="normal" in="SourceGraphic" in2="BackgroundImageFix" result="shape"/>
<feColorMatrix in="SourceAlpha" type="matrix" values="0 0 0 0 0 0 0 0 0 0 0 0 0 0 0 0 0 0 127 0" result="hardAlpha"/>
<feOffset/>
<feGaussianBlur stdDeviation="3"/>
<feComposite in2="hardAlpha" operator="arithmetic" k2="-1" k3="1"/>
<feColorMatrix type="matrix" values="0 0 0 0 1 0 0 0 0 1 0 0 0 0 1 0 0 0 0.5 0"/>
<feBlend mode="normal" in2="shape" result="effect1_innerShadow_3074_403"/>
</filter>
<filter id="filter2_i_3074_403" x="11" y="10" width="8" height="8" filterUnits="userSpaceOnUse" color-interpolation-filters="sRGB">
<feFlood flood-opacity="0" result="BackgroundImageFix"/>
<feBlend mode="normal" in="SourceGraphic" in2="BackgroundImageFix" result="shape"/>
<feColorMatrix in="SourceAlpha" type="matrix" values="0 0 0 0 0 0 0 0 0 0 0 0 0 0 0 0 0 0 127 0" result="hardAlpha"/>
<feOffset/>
<feGaussianBlur stdDeviation="3"/>
<feComposite in2="hardAlpha" operator="arithmetic" k2="-1" k3="1"/>
<feColorMatrix type="matrix" values="0 0 0 0 1 0 0 0 0 1 0 0 0 0 1 0 0 0 0.5 0"/>
<feBlend mode="normal" in2="shape" result="effect1_innerShadow_3074_403"/>
</filter>
<filter id="filter3_i_3074_403" x="10.25" y="21.25" width="9.5" height="9.5" filterUnits="userSpaceOnUse" color-interpolation-filters="sRGB">
<feFlood flood-opacity="0" result="BackgroundImageFix"/>
<feBlend mode="normal" in="SourceGraphic" in2="BackgroundImageFix" result="shape"/>
<feColorMatrix in="SourceAlpha" type="matrix" values="0 0 0 0 0 0 0 0 0 0 0 0 0 0 0 0 0 0 127 0" result="hardAlpha"/>
<feOffset/>
<feGaussianBlur stdDeviation="3"/>
<feComposite in2="hardAlpha" operator="arithmetic" k2="-1" k3="1"/>
<feColorMatrix type="matrix" values="0 0 0 0 1 0 0 0 0 1 0 0 0 0 1 0 0 0 0.5 0"/>
<feBlend mode="normal" in2="shape" result="effect1_innerShadow_3074_403"/>
</filter>
<filter id="filter4_i_3074_403" x="11" y="22" width="8" height="8" filterUnits="userSpaceOnUse" color-interpolation-filters="sRGB">
<feFlood flood-opacity="0" result="BackgroundImageFix"/>
<feBlend mode="normal" in="SourceGraphic" in2="BackgroundImageFix" result="shape"/>
<feColorMatrix in="SourceAlpha" type="matrix" values="0 0 0 0 0 0 0 0 0 0 0 0 0 0 0 0 0 0 127 0" result="hardAlpha"/>
<feOffset/>
<feGaussianBlur stdDeviation="3"/>
<feComposite in2="hardAlpha" operator="arithmetic" k2="-1" k3="1"/>
<feColorMatrix type="matrix" values="0 0 0 0 1 0 0 0 0 1 0 0 0 0 1 0 0 0 0.5 0"/>
<feBlend mode="normal" in2="shape" result="effect1_innerShadow_3074_403"/>
</filter>
<filter id="filter5_i_3074_403" x="22.25" y="9.25" width="9.5" height="9.5" filterUnits="userSpaceOnUse" color-interpolation-filters="sRGB">
<feFlood flood-opacity="0" result="BackgroundImageFix"/>
<feBlend mode="normal" in="SourceGraphic" in2="BackgroundImageFix" result="shape"/>
<feColorMatrix in="SourceAlpha" type="matrix" values="0 0 0 0 0 0 0 0 0 0 0 0 0 0 0 0 0 0 127 0" result="hardAlpha"/>
<feOffset/>
<feGaussianBlur stdDeviation="3"/>
<feComposite in2="hardAlpha" operator="arithmetic" k2="-1" k3="1"/>
<feColorMatrix type="matrix" values="0 0 0 0 1 0 0 0 0 1 0 0 0 0 1 0 0 0 0.5 0"/>
<feBlend mode="normal" in2="shape" result="effect1_innerShadow_3074_403"/>
</filter>
<filter id="filter6_i_3074_403" x="23" y="10" width="8" height="8" filterUnits="userSpaceOnUse" color-interpolation-filters="sRGB">
<feFlood flood-opacity="0" result="BackgroundImageFix"/>
<feBlend mode="normal" in="SourceGraphic" in2="BackgroundImageFix" result="shape"/>
<feColorMatrix in="SourceAlpha" type="matrix" values="0 0 0 0 0 0 0 0 0 0 0 0 0 0 0 0 0 0 127 0" result="hardAlpha"/>
<feOffset/>
<feGaussianBlur stdDeviation="3"/>
<feComposite in2="hardAlpha" operator="arithmetic" k2="-1" k3="1"/>
<feColorMatrix type="matrix" values="0 0 0 0 1 0 0 0 0 1 0 0 0 0 1 0 0 0 0.5 0"/>
<feBlend mode="normal" in2="shape" result="effect1_innerShadow_3074_403"/>
</filter>
<filter id="filter7_i_3074_403" x="22.25" y="21.25" width="9.5" height="9.5" filterUnits="userSpaceOnUse" color-interpolation-filters="sRGB">
<feFlood flood-opacity="0" result="BackgroundImageFix"/>
<feBlend mode="normal" in="SourceGraphic" in2="BackgroundImageFix" result="shape"/>
<feColorMatrix in="SourceAlpha" type="matrix" values="0 0 0 0 0 0 0 0 0 0 0 0 0 0 0 0 0 0 127 0" result="hardAlpha"/>
<feOffset/>
<feGaussianBlur stdDeviation="3"/>
<feComposite in2="hardAlpha" operator="arithmetic" k2="-1" k3="1"/>
<feColorMatrix type="matrix" values="0 0 0 0 1 0 0 0 0 1 0 0 0 0 1 0 0 0 0.5 0"/>
<feBlend mode="normal" in2="shape" result="effect1_innerShadow_3074_403"/>
</filter>
<filter id="filter8_i_3074_403" x="23" y="22" width="8" height="8" filterUnits="userSpaceOnUse" color-interpolation-filters="sRGB">
<feFlood flood-opacity="0" result="BackgroundImageFix"/>
<feBlend mode="normal" in="SourceGraphic" in2="BackgroundImageFix" result="shape"/>
<feColorMatrix in="SourceAlpha" type="matrix" values="0 0 0 0 0 0 0 0 0 0 0 0 0 0 0 0 0 0 127 0" result="hardAlpha"/>
<feOffset/>
<feGaussianBlur stdDeviation="3"/>
<feComposite in2="hardAlpha" operator="arithmetic" k2="-1" k3="1"/>
<feColorMatrix type="matrix" values="0 0 0 0 1 0 0 0 0 1 0 0 0 0 1 0 0 0 0.5 0"/>
<feBlend mode="normal" in2="shape" result="effect1_innerShadow_3074_403"/>
</filter>
<linearGradient id="paint0_linear_3074_403" x1="26.5" y1="5.5" x2="21" y2="38.5" gradientUnits="userSpaceOnUse">
<stop stop-color="white"/>
<stop offset="1" stop-color="#F7FDFF"/>
</linearGradient>
<linearGradient id="paint1_linear_3074_403" x1="16.2941" y1="10.5882" x2="15" y2="18.3529" gradientUnits="userSpaceOnUse">
<stop stop-color="#F4558F"/>
<stop offset="1" stop-color="#B325AD"/>
</linearGradient>
<linearGradient id="paint2_linear_3074_403" x1="15.5882" y1="22.5882" x2="15" y2="30.3529" gradientUnits="userSpaceOnUse">
<stop stop-color="#FFF6F2"/>
<stop offset="1" stop-color="#FAD427"/>
</linearGradient>
<linearGradient id="paint3_linear_3074_403" x1="28.8824" y1="10.9412" x2="27.1176" y2="17.2941" gradientUnits="userSpaceOnUse">
<stop stop-color="#CBEE52"/>
<stop offset="1" stop-color="#9BC82B"/>
</linearGradient>
<linearGradient id="paint4_linear_3074_403" x1="27.1176" y1="22.1176" x2="27.1176" y2="29.2941" gradientUnits="userSpaceOnUse">
<stop stop-color="#A6CAFC"/>
<stop offset="1" stop-color="#5293E7"/>
</linearGradient>
<clipPath id="clip0_3074_403">
<rect x="4" y="3" width="34" height="34" rx="9" fill="white"/>
</clipPath>
</defs>
</svg>
